<svg width="20" height="22" viewBox="0 0 20 22" fill="none" xmlns="http://www.w3.org/2000/svg">
<path d="M13.22 5.53L15.75 3.59L12.56 3.5L11.5 0.5L10.44 3.5L7.25 3.59L9.78 5.53L8.87 8.59L11.5 6.78L14.13 8.59L13.22 5.53Z" fill="#394D59"/>
<path d="M17.61 11.75L19.25 10.5L17.19 10.45L16.5 8.5L15.81 10.45L13.75 10.5L15.39 11.75L14.8 13.73L16.5 12.56L18.2 13.73L17.61 11.75Z" fill="#394D59"/>
<path d="M5 5.5C5 11.58 9.92 16.5 16 16.5C16.53 16.5 17.05 16.46 17.56 16.39C15.95 18.86 13.17 20.5 10 20.5C5.03 20.5 1 16.47 1 11.5C1 8.33 2.64 5.55 5.11 3.94C5.04 4.45 5 4.97 5 5.5Z" fill="#394D59" stroke="#394D59" stroke-width="0.5" stroke-linecap="round" stroke-linejoin="round"/>
</svg>
