<svg width="12" height="12" viewBox="0 0 12 12" fill="none" xmlns="http://www.w3.org/2000/svg">
<g clip-path="url(#clip0_96_302)">
<path d="M3.26938 6L5.31738 8L8.73071 4" stroke="#394D59" stroke-width="2"/>
<path d="M10.6667 0H1.33333C0.593333 0 0 0.593333 0 1.33333V10.6667C0 11.0203 0.140476 11.3594 0.390524 11.6095C0.640573 11.8595 0.979711 12 1.33333 12H10.6667C11.0203 12 11.3594 11.8595 11.6095 11.6095C11.8595 11.3594 12 11.0203 12 10.6667V1.33333C12 0.593333 11.4 0 10.6667 0ZM10.6667 1.33333C10.6667 4.97823 10.6667 7.02177 10.6667 10.6667H1.33333V1.33333H10.6667Z" fill="#394D59"/>
<path fill-rule="evenodd" clip-rule="evenodd" d="M10.67 1.19031C10.67 1.26747 10.7326 1.33002 10.8098 1.33002H11H9.34009H10.005C10.3723 1.33001 10.67 1.62775 10.67 1.99502V2.66002V1.19031Z" fill="#394D59"/>
<path d="M10.67 1.19031C10.67 1.26747 10.7326 1.33002 10.8098 1.33002H11H9.34009H10.005C10.3723 1.33001 10.67 1.62775 10.67 1.99502V2.66002V1.19031Z" fill="#394D59"/>
<path d="M10.67 1.19031C10.67 1.26747 10.7326 1.33002 10.8098 1.33002H11H9.34009H10.005C10.3723 1.33001 10.67 1.62775 10.67 1.99502V2.66002V1.19031Z" fill="#394D59"/>
<path d="M10.67 1.19031C10.67 1.26747 10.7326 1.33002 10.8098 1.33002H11H9.34009H10.005C10.3723 1.33001 10.67 1.62775 10.67 1.99502V2.66002V1.19031Z" fill="#394D59"/>
<path d="M10.67 1.19031C10.67 1.26747 10.7326 1.33002 10.8098 1.33002H11H9.34009H10.005C10.3723 1.33001 10.67 1.62775 10.67 1.99502V2.66002V1.19031Z" fill="#394D59"/>
<path fill-rule="evenodd" clip-rule="evenodd" d="M1.18994 1.33008C1.2671 1.33008 1.32965 1.26753 1.32965 1.19037V1.00012V2.66003V1.99508C1.32964 1.62781 1.62738 1.33008 1.99465 1.33008H2.65965H1.18994Z" fill="#394D59"/>
<path d="M1.18994 1.33008C1.2671 1.33008 1.32965 1.26753 1.32965 1.19037V1.00012V2.66003V1.99508C1.32964 1.62781 1.62738 1.33008 1.99465 1.33008H2.65965H1.18994Z" fill="#394D59"/>
<path d="M1.18994 1.33008C1.2671 1.33008 1.32965 1.26753 1.32965 1.19037V1.00012V2.66003V1.99508C1.32964 1.62781 1.62738 1.33008 1.99465 1.33008H2.65965H1.18994Z" fill="#394D59"/>
<path d="M1.18994 1.33008C1.2671 1.33008 1.32965 1.26753 1.32965 1.19037V1.00012V2.66003V1.99508C1.32964 1.62781 1.62738 1.33008 1.99465 1.33008H2.65965H1.18994Z" fill="#394D59"/>
<path d="M1.18994 1.33008C1.2671 1.33008 1.32965 1.26753 1.32965 1.19037V1.00012V2.66003V1.99508C1.32964 1.62781 1.62738 1.33008 1.99465 1.33008H2.65965H1.18994Z" fill="#394D59"/>
<path fill-rule="evenodd" clip-rule="evenodd" d="M1.33004 10.8101C1.33004 10.7329 1.26749 10.6704 1.19034 10.6704H1.00009H2.66H1.99504C1.62778 10.6704 1.33004 10.3726 1.33004 10.0054V9.34035V10.8101Z" fill="#394D59"/>
<path d="M1.33004 10.8101C1.33004 10.7329 1.26749 10.6704 1.19034 10.6704H1.00009H2.66H1.99504C1.62778 10.6704 1.33004 10.3726 1.33004 10.0054V9.34035V10.8101Z" fill="#394D59"/>
<path d="M1.33004 10.8101C1.33004 10.7329 1.26749 10.6704 1.19034 10.6704H1.00009H2.66H1.99504C1.62778 10.6704 1.33004 10.3726 1.33004 10.0054V9.34035V10.8101Z" fill="#394D59"/>
<path d="M1.33004 10.8101C1.33004 10.7329 1.26749 10.6704 1.19034 10.6704H1.00009H2.66H1.99504C1.62778 10.6704 1.33004 10.3726 1.33004 10.0054V9.34035V10.8101Z" fill="#394D59"/>
<path d="M1.33004 10.8101C1.33004 10.7329 1.26749 10.6704 1.19034 10.6704H1.00009H2.66H1.99504C1.62778 10.6704 1.33004 10.3726 1.33004 10.0054V9.34035V10.8101Z" fill="#394D59"/>
<path fill-rule="evenodd" clip-rule="evenodd" d="M10.86 10.6699C10.755 10.6699 10.6699 10.755 10.6699 10.86V10.9999V9.33997V10.0049C10.6699 10.3722 10.3722 10.6699 10.0049 10.6699H8.86H10.86Z" fill="#394D59"/>
<path d="M10.86 10.6699C10.755 10.6699 10.6699 10.755 10.6699 10.86V10.9999V9.33997V10.0049C10.6699 10.3722 10.3722 10.6699 10.0049 10.6699H8.86H10.86Z" fill="#394D59"/>
<path d="M10.86 10.6699C10.755 10.6699 10.6699 10.755 10.6699 10.86V10.9999V9.33997V10.0049C10.6699 10.3722 10.3722 10.6699 10.0049 10.6699H8.86H10.86Z" fill="#394D59"/>
<path d="M10.86 10.6699C10.755 10.6699 10.6699 10.755 10.6699 10.86V10.9999V9.33997V10.0049C10.6699 10.3722 10.3722 10.6699 10.0049 10.6699H8.86H10.86Z" fill="#394D59"/>
<path d="M10.86 10.6699C10.755 10.6699 10.6699 10.755 10.6699 10.86V10.9999V9.33997V10.0049C10.6699 10.3722 10.3722 10.6699 10.0049 10.6699H8.86H10.86Z" fill="#394D59"/>
</g>
<defs>
<clipPath id="clip0_96_302">
<rect width="12" height="12" rx="1" fill="white"/>
</clipPath>
</defs>
</svg>
