<svg width="191" height="35" viewBox="0 0 191 35" fill="none" xmlns="http://www.w3.org/2000/svg">
<path d="M15.458 0.354212C15.3564 0.356806 15.2567 0.361779 15.1602 0.368697C13.575 0.483703 11.5903 1.27837 8.5568 2.80674L5.17038 21.93C11.8626 19.6889 16.5082 19.5619 19.75 21.4312V1.83935C18.2087 0.886762 17.0394 0.391069 15.7675 0.354535C15.6643 0.35186 15.5611 0.351682 15.458 0.354212ZM25.9189 1.58858C25.6702 1.58577 25.4235 1.58978 25.1929 1.59918C24.1007 1.64425 22.8364 1.83859 21.2843 2.08795V21.2342C24.9989 20.3884 30.395 20.7803 35.8856 22.052L32.4937 2.89905C29.4323 1.99435 27.6686 1.61161 25.9189 1.58858ZM26.1141 3.42069C27.7246 3.44274 29.2563 3.71988 30.6934 3.96329L31.0717 5.74924C29.0441 5.34391 25.4471 5.21896 23.1875 5.64332L23.1332 3.71879C24.1529 3.48597 25.1477 3.4075 26.1141 3.42069ZM4.75642 3.92416L3.85115 8.89668H5.90554L6.786 3.92416H4.75642ZM34.2482 3.92416L37.6369 23.0592L37.8278 24.1372L39.754 24.1208L36.2705 3.92416H34.2482ZM27.5244 10.1739C28.9734 10.1767 30.3953 10.2593 31.7149 10.4141L32.0154 12.2704C29.2319 11.9375 25.8268 11.9582 23.2334 12.2704L23.173 10.4141C24.5997 10.2484 26.0754 10.1712 27.5244 10.1739ZM3.49712 10.8418L2.90674 14.0849H4.98672L5.56098 10.8418H3.49712ZM26.8956 13.7866C27.2926 13.7889 27.7045 13.7958 28.1504 13.8085L28.3682 15.6999C26.6655 15.649 24.3509 15.7604 23.2755 15.8134L23.2158 13.8694C24.6485 13.8161 25.7046 13.7799 26.8956 13.7866ZM30.4321 13.8349C31.1371 13.8395 31.8558 13.871 32.4888 13.8424L32.7088 15.7599C31.971 15.7262 30.5882 15.6702 29.9748 15.7056L29.7355 13.8428C29.9676 13.8355 30.1999 13.8329 30.4321 13.8349ZM2.55272 16.0301L1.01921 24.4532L3.15384 24.4349L4.64216 16.0301H2.55272ZM28.4022 17.3107C30.0741 17.3097 31.6986 17.3944 33.2154 17.5887L33.4709 19.8356C30.5458 19.3768 26.1589 19.0036 23.3157 19.4849L23.3038 17.5478C25.0108 17.3987 26.7303 17.3118 28.4022 17.3107ZM14.1964 22.072C11.6289 22.0818 8.40554 22.7476 4.35609 24.2079L3.74047 24.4298L19.7499 24.2925V23.6065C18.3655 22.6114 16.5592 22.0632 14.1964 22.072ZM25.657 22.7394C23.9833 22.7466 22.4926 22.8949 21.2843 23.1914V24.2792L36.427 24.1492C32.6479 23.2159 28.8266 22.7256 25.657 22.7394ZM0.906067 26.4068V28.3524H40.1283V26.4068H0.906067Z" fill="#C8C8C8"/>
<mask id="path-2-outside-1_526_531" maskUnits="userSpaceOnUse" x="28.5987" y="0.247559" width="162" height="35" fill="black">
<rect fill="white" x="28.5987" y="0.247559" width="162" height="35"/>
<path d="M36.297 7.40063C36.1227 7.40063 35.9615 7.48822 35.8134 7.66339V18.778C35.8134 19.5312 35.857 20.1356 35.9441 20.591C36.0312 21.0464 36.2273 21.5019 36.5322 21.9573C37.1246 22.8157 38.4706 23.2448 40.5702 23.2448V24.02C40.4918 24.02 39.834 24.2652 38.5969 24.7557C37.3598 25.2549 36.6106 25.5045 36.3492 25.5045C35.9049 25.5045 35.4606 25.3644 35.0163 25.0841C34.572 24.8039 34.1669 24.4316 33.801 23.9674C33.4351 23.4945 33.1432 22.9733 32.9254 22.404C32.7076 21.8347 32.5987 21.261 32.5987 20.683V7.25612C32.5987 7.20357 32.7991 7.08971 33.1998 6.91454C33.6093 6.73061 34.1189 6.5204 34.7288 6.28392C35.3473 6.04744 35.9746 5.81534 36.6106 5.58762C37.2466 5.35114 37.8041 5.15845 38.2833 5.00955C38.7625 4.86066 39.063 4.78621 39.185 4.78621C39.2634 4.78621 39.3505 4.93073 39.4464 5.21976C39.5509 5.50879 39.6555 5.86351 39.76 6.28392C39.8645 6.69557 39.9647 7.08533 40.0606 7.45319C40.2435 8.1889 40.4352 8.73193 40.6356 9.08228C40.8446 9.43262 41.2367 9.60779 41.8117 9.60779V10.1464C41.4109 10.3129 40.7445 10.6282 39.8123 11.0924C38.8627 11.5566 38.3574 11.7887 38.2964 11.7887C38.035 11.7887 37.6996 11.0573 37.2901 9.59465C36.872 8.13197 36.5409 7.40063 36.297 7.40063Z"/>
<path d="M42.6964 21.5763V12.6426C42.6964 12.5901 42.8968 12.4762 43.2976 12.301C43.707 12.1171 44.2167 11.9069 44.8265 11.6704C45.4364 11.4339 46.0549 11.2018 46.6822 10.9741C47.3182 10.7376 47.8758 10.545 48.3549 10.3961C48.8341 10.2472 49.1346 10.1727 49.2566 10.1727C49.4134 10.1727 49.6182 10.2778 49.8708 10.488C50.1235 10.6895 50.3761 10.9522 50.6288 11.2763C50.8901 11.6004 51.1079 11.9419 51.2822 12.301C51.4651 12.6514 51.5566 12.9711 51.5566 13.2601V23.0084C51.5566 23.0609 51.3606 23.1792 50.9685 23.3631C50.5852 23.547 50.1017 23.7616 49.518 24.0068C48.9343 24.2433 48.3288 24.4754 47.7015 24.7031C47.083 24.9309 46.5254 25.1236 46.0288 25.2812C45.5409 25.4301 45.2099 25.5045 45.0356 25.5045C44.7481 25.5045 44.4214 25.3294 44.0555 24.979C43.6896 24.6199 43.3716 24.1426 43.1016 23.547C42.8315 22.9514 42.6964 22.2945 42.6964 21.5763ZM47.2703 23.0346C47.6188 23.0346 47.9672 22.8901 48.3157 22.6011V14.6658C48.3157 13.3345 47.8627 12.6689 46.9566 12.6689C46.5907 12.6689 46.2422 12.8047 45.9112 13.0762V21.0377C45.9112 22.369 46.3642 23.0346 47.2703 23.0346Z"/>
<path d="M53.4999 23.6784V14.5476C53.4999 13.9608 53.3735 13.4528 53.1209 13.0236C52.877 12.5945 52.5677 12.3799 52.1931 12.3799V11.7887C52.315 11.7624 53.2864 11.215 55.1072 10.1464C55.1769 10.164 55.251 10.1859 55.3294 10.2121C55.4078 10.2296 55.4906 10.2559 55.5777 10.291C55.7519 10.3523 55.9828 10.5274 56.2703 10.8165C56.5665 11.1055 56.7146 11.4383 56.7146 11.8149C56.8453 11.7361 57.1502 11.5653 57.6294 11.3026C58.9536 10.5493 59.7682 10.1727 60.0731 10.1727C60.3867 10.1727 60.7352 10.3347 61.1186 10.6588C61.5019 10.9741 61.7937 11.3595 61.9941 11.8149C62.0115 11.8062 62.1117 11.7536 62.2947 11.6573C62.4776 11.5609 62.7433 11.4252 63.0918 11.25C64.4683 10.5318 65.3047 10.1727 65.6009 10.1727C65.9842 10.1727 66.3545 10.3523 66.7117 10.7114C67.0776 11.0705 67.3738 11.4996 67.6003 11.9989C67.8355 12.4893 67.9532 12.9448 67.9532 13.3652V21.5238C67.9532 22.5135 68.3931 23.0959 69.273 23.2711V23.8623L66.3458 25.5045C65.9537 25.3469 65.5878 25.0841 65.2481 24.7163C64.917 24.3484 64.7515 24.0025 64.7515 23.6784V15.7431C64.7515 14.5695 64.599 13.79 64.2941 13.4046C63.9892 13.0192 63.5971 12.8266 63.118 12.8266L62.3339 12.9973V21.5238C62.3339 22.5135 62.7738 23.0959 63.6538 23.2711V23.8623L60.7265 25.5045C60.3345 25.3469 59.9686 25.0841 59.6288 24.7163C59.289 24.3484 59.1191 24.0025 59.1191 23.6784V15.8745C59.1191 13.8075 58.6313 12.774 57.6555 12.774L56.7146 12.9448V21.5238C56.7146 22.6098 57.0805 23.2273 57.8123 23.3762V23.9674L55.1072 25.5045C54.7152 25.3469 54.3493 25.0841 54.0095 24.7163C53.6698 24.3484 53.4999 24.0025 53.4999 23.6784Z"/>
<path d="M69.8964 23.6784V14.5476C69.8964 13.9608 69.7701 13.4528 69.5175 13.0236C69.2735 12.5945 68.9642 12.3799 68.5896 12.3799V11.7887C68.7116 11.7624 69.683 11.215 71.5038 10.1464C71.5735 10.164 71.6475 10.1859 71.726 10.2121C71.8044 10.2296 71.8871 10.2559 71.9743 10.291C72.1485 10.3523 72.3794 10.5274 72.6669 10.8165C72.9631 11.1055 73.1112 11.4383 73.1112 11.8149C73.2419 11.7361 73.5468 11.5653 74.0259 11.3026C75.3502 10.5493 76.1647 10.1727 76.4697 10.1727C76.7833 10.1727 77.1318 10.3347 77.5151 10.6588C77.8984 10.9741 78.1903 11.3595 78.3907 11.8149C78.4081 11.8062 78.5083 11.7536 78.6912 11.6573C78.8742 11.5609 79.1399 11.4252 79.4884 11.25C80.8649 10.5318 81.7012 10.1727 81.9975 10.1727C82.3808 10.1727 82.7511 10.3523 83.1082 10.7114C83.4742 11.0705 83.7704 11.4996 83.9969 11.9989C84.2321 12.4893 84.3497 12.9448 84.3497 13.3652V21.5238C84.3497 22.5135 84.7897 23.0959 85.6696 23.2711V23.8623L82.7423 25.5045C82.3503 25.3469 81.9844 25.0841 81.6446 24.7163C81.3136 24.3484 81.148 24.0025 81.148 23.6784V15.7431C81.148 14.5695 80.9956 13.79 80.6907 13.4046C80.3857 13.0192 79.9937 12.8266 79.5145 12.8266L78.7304 12.9973V21.5238C78.7304 22.5135 79.1704 23.0959 80.0503 23.2711V23.8623L77.1231 25.5045C76.731 25.3469 76.3651 25.0841 76.0254 24.7163C75.6856 24.3484 75.5157 24.0025 75.5157 23.6784V15.8745C75.5157 13.8075 75.0278 12.774 74.0521 12.774L73.1112 12.9448V21.5238C73.1112 22.6098 73.4771 23.2273 74.2089 23.3762V23.9674L71.5038 25.5045C71.1118 25.3469 70.7459 25.0841 70.4061 24.7163C70.0663 24.3484 69.8964 24.0025 69.8964 23.6784Z"/>
<path d="M89.5077 21.3136C89.5077 21.769 89.6471 22.1456 89.9259 22.4434C90.4748 23.0215 91.1369 23.039 91.9123 22.496V14.1272C91.9123 13.0236 91.5463 12.4018 90.8145 12.2616V11.6704L93.5196 10.1464C93.9117 10.3041 94.2776 10.5668 94.6173 10.9347C94.9571 11.3026 95.127 11.6485 95.127 11.9726V21.0902C95.127 21.6858 95.2533 22.1982 95.506 22.6274C95.7586 23.0565 96.0723 23.2711 96.4469 23.2711V23.8623C96.3162 23.8711 95.3404 24.4185 93.5196 25.5045C93.1102 25.3294 92.7399 25.0666 92.4088 24.7163C92.0778 24.3659 91.9123 24.0287 91.9123 23.7047L88.5668 25.5045C88.5407 25.487 88.5058 25.4695 88.4623 25.452C88.4274 25.4257 88.3839 25.3951 88.3316 25.36C88.2271 25.2987 88.0441 25.163 87.7827 24.9528C87.5214 24.7426 87.2949 24.5236 87.1032 24.2959C86.5631 23.7003 86.293 23.0259 86.293 22.2726V14.1272C86.293 13.1287 85.8574 12.5463 84.9862 12.3799V11.7887L87.9004 10.1464C88.2924 10.3041 88.6583 10.5668 88.9981 10.9347C89.3378 11.3026 89.5077 11.6485 89.5077 11.9726V21.3136Z"/>
<path d="M97.0703 23.6784V14.5476C97.0703 13.9608 96.9439 13.4528 96.6913 13.0236C96.4474 12.5945 96.1381 12.3799 95.7635 12.3799V11.7887C95.8854 11.7624 96.8568 11.215 98.6777 10.1464C98.7473 10.164 98.8214 10.1859 98.8998 10.2121C98.9782 10.2296 99.061 10.2559 99.1481 10.291C99.3223 10.3523 99.5532 10.5274 99.8407 10.8165C100.137 11.1055 100.285 11.4383 100.285 11.8149C100.416 11.7361 100.721 11.5653 101.2 11.3026C102.524 10.5493 103.308 10.1727 103.552 10.1727C103.935 10.1727 104.306 10.3523 104.663 10.7114C105.029 11.0705 105.325 11.4996 105.551 11.9989C105.787 12.4893 105.904 12.9448 105.904 13.3652V21.5238C105.904 22.5135 106.344 23.0959 107.224 23.2711V23.8623L104.297 25.5045C103.905 25.3469 103.539 25.0841 103.199 24.7163C102.859 24.3484 102.69 24.0025 102.69 23.6784V15.8745C102.69 14.8673 102.576 14.1009 102.35 13.5754C102.132 13.0411 101.74 12.774 101.174 12.774L100.285 12.9448V21.5238C100.285 22.6098 100.651 23.2273 101.383 23.3762V23.9674L98.6777 25.5045C98.2856 25.3469 97.9197 25.0841 97.5799 24.7163C97.2402 24.3484 97.0703 24.0025 97.0703 23.6784Z"/>
<path d="M107.442 6.80943V5.16721C107.442 5.14093 107.551 5.07962 107.769 4.98328C107.996 4.88693 108.257 4.78183 108.553 4.66797C108.858 4.55411 109.133 4.45776 109.377 4.37894C109.629 4.29135 109.786 4.24756 109.847 4.24756C109.969 4.24756 110.139 4.40083 110.357 4.70738C110.574 5.01393 110.683 5.32924 110.683 5.65331V7.61084C110.683 7.63712 110.574 7.69843 110.357 7.79477C110.148 7.89111 109.899 7.99622 109.612 8.11008C109.324 8.22394 109.054 8.32466 108.802 8.41225C108.549 8.49107 108.383 8.53049 108.305 8.53049C108.096 8.53049 107.9 8.35094 107.717 7.99184C107.534 7.63274 107.442 7.2386 107.442 6.80943ZM111.062 11.9989V21.5238C111.062 22.6098 111.428 23.2273 112.16 23.3762V23.9674L109.455 25.5045C109.063 25.3469 108.697 25.0841 108.357 24.7163C108.017 24.3484 107.848 24.0025 107.848 23.6784V14.1535C107.848 13.0499 107.482 12.428 106.75 12.2879V11.6967L109.455 10.1727C109.847 10.3304 110.213 10.5931 110.553 10.961C110.892 11.3288 111.062 11.6748 111.062 11.9989Z"/>
<path d="M115.462 7.37436H116.22V10.5668H117.579L117.318 11.8938H116.22V21.5238C116.22 22.6098 116.586 23.2273 117.318 23.3762V23.9674L114.613 25.5045C114.221 25.3469 113.855 25.0841 113.515 24.7163C113.175 24.3484 113.006 24.0025 113.006 23.6784V11.92H111.908L112.169 10.7902C112.535 10.7902 112.958 10.6194 113.437 10.2778C113.916 9.93623 114.352 9.50269 114.744 8.97717C115.136 8.45166 115.375 7.91739 115.462 7.37436Z"/>
<path d="M127.024 11.9726V22.6536C127.024 23.328 126.723 24.3046 126.122 25.5834C125.887 26.0739 125.612 26.595 125.299 27.1468C124.985 27.6986 124.667 28.2153 124.345 28.697C124.022 29.1875 123.722 29.586 123.443 29.8926C123.173 30.1991 122.96 30.3524 122.803 30.3524C122.507 30.3524 122.132 30.2867 121.679 30.1553C121.235 30.0327 120.777 29.8751 120.307 29.6824C119.845 29.4897 119.436 29.3058 119.078 29.1306L118.307 28.7365V27.9219H119.209C119.679 27.9219 120.198 27.7424 120.764 27.3833C121.33 27.0242 121.884 26.5118 122.424 25.8461C122.964 25.1892 123.426 24.4185 123.809 23.5339C121.805 24.4886 120.647 24.9659 120.333 24.9659C119.967 24.9659 119.619 24.7995 119.287 24.4667C118.965 24.1338 118.699 23.7047 118.49 23.1792C118.29 22.6536 118.19 22.1019 118.19 21.5238V14.1272C118.19 13.1287 117.754 12.5463 116.883 12.3799V11.7887L119.797 10.1464C120.189 10.3041 120.555 10.5668 120.895 10.9347C121.235 11.3026 121.404 11.6485 121.404 11.9726V19.2641C121.404 20.5166 121.601 21.353 121.993 21.7734C122.385 22.1938 122.99 22.404 123.809 22.404V14.1272C123.809 13.0236 123.443 12.4018 122.711 12.2616V11.6704L125.416 10.1464C125.808 10.3041 126.174 10.5668 126.514 10.9347C126.854 11.3026 127.024 11.6485 127.024 11.9726Z"/>
<path d="M136.83 16.9256C136.377 16.9256 135.989 16.584 135.667 15.9008C135.353 15.2176 135.197 14.3812 135.197 13.3915V7.79477C135.197 7.66339 135.38 7.47508 135.745 7.22984C136.12 6.9846 136.586 6.72623 137.144 6.45471C137.71 6.17444 138.285 5.9073 138.869 5.65331C139.452 5.39931 139.962 5.19348 140.398 5.03583C140.842 4.86942 141.121 4.78621 141.234 4.78621C141.452 4.78621 141.757 5.14531 142.149 5.86351C142.192 5.9511 142.245 6.0562 142.306 6.17882C142.375 6.30144 142.454 6.43719 142.541 6.58609C142.628 6.73499 142.702 6.87512 142.763 7.0065C142.833 7.13788 142.894 7.25174 142.946 7.34808C143.181 7.77725 143.477 7.99184 143.835 7.99184V8.53049C143.695 8.5918 143.53 8.67062 143.338 8.76697C143.146 8.86331 142.929 8.97279 142.685 9.09541C141.552 9.71727 140.947 10.0282 140.868 10.0282C140.598 10.0282 140.263 9.49831 139.862 8.43852C139.461 7.3875 139.134 6.86198 138.882 6.86198C138.559 6.86198 138.398 7.12912 138.398 7.66339V13.6674C138.398 14.3856 138.559 14.7447 138.882 14.7447C138.96 14.7447 139.513 14.5082 140.541 14.0352C141.587 13.571 142.214 13.3389 142.423 13.3389C142.859 13.3389 143.238 13.6849 143.56 14.3768C143.883 15.06 144.044 15.9446 144.044 17.0307V22.7587C144.044 22.8989 143.839 23.0916 143.43 23.3368C143.029 23.5733 142.519 23.8317 141.901 24.1119C141.291 24.3922 140.668 24.6593 140.032 24.9133C139.396 25.1586 138.838 25.36 138.359 25.5177C137.889 25.6841 137.592 25.7673 137.47 25.7673C137.279 25.7673 137.091 25.6447 136.909 25.3994C136.726 25.1454 136.547 24.8345 136.373 24.4667C136.207 24.09 136.042 23.7178 135.876 23.3499C135.711 22.9733 135.545 22.6624 135.38 22.4172C135.214 22.1632 135.044 22.0362 134.87 22.0362V21.4975C135.018 21.4362 135.184 21.3574 135.367 21.261C135.558 21.1647 135.767 21.0552 135.994 20.9326C137.135 20.302 137.749 19.9867 137.836 19.9867C138.106 19.9867 138.49 20.6041 138.986 21.8391C139.466 23.0828 139.831 23.7047 140.084 23.7047C140.267 23.7047 140.437 23.6346 140.594 23.4945C140.759 23.3456 140.842 23.1441 140.842 22.8901V16.8467C140.842 16.0322 140.62 15.6249 140.176 15.6249C140.019 15.6249 139.457 15.8395 138.49 16.2687C137.497 16.7066 136.943 16.9256 136.83 16.9256Z"/>
<path d="M145.843 28.4606V14.3111C145.843 13.8995 145.73 13.4966 145.503 13.1024C145.286 12.7083 144.972 12.485 144.563 12.4324V11.8412C144.685 11.8237 145.656 11.2763 147.477 10.199C147.886 10.3742 148.256 10.6369 148.588 10.9873C148.919 11.3376 149.084 11.666 149.084 11.9726C150.992 10.7902 152.107 10.199 152.43 10.199C152.552 10.199 152.787 10.3347 153.135 10.6063C153.484 10.8778 153.832 11.2807 154.181 11.8149C154.529 12.3492 154.703 12.8922 154.703 13.444V23.0346C154.703 23.0872 154.551 23.1879 154.246 23.3368C153.941 23.4857 153.549 23.6609 153.07 23.8623C152.591 24.055 152.09 24.2521 151.567 24.4535C151.044 24.6462 150.556 24.8214 150.103 24.979C149.65 25.1367 149.302 25.2505 149.058 25.3206V26.306C149.058 27.4008 149.424 28.0226 150.156 28.1715V28.7627L147.451 30.2999C147.059 30.1334 146.693 29.8663 146.353 29.4984C146.013 29.1306 145.843 28.7846 145.843 28.4606ZM150.13 12.6689C149.79 12.6689 149.441 12.8134 149.084 13.1024V23.7835C149.398 23.7835 149.742 23.7134 150.117 23.5733C150.491 23.4244 150.813 23.2405 151.084 23.0215C151.354 22.8025 151.489 22.5792 151.489 22.3515V14.6658C151.489 13.3345 151.036 12.6689 150.13 12.6689Z"/>
<path d="M163.181 10.1727C163.277 10.1727 163.499 10.3085 163.847 10.58C164.204 10.8515 164.562 11.2369 164.919 11.7361C165.276 12.2354 165.455 12.7171 165.455 13.1813V17.7007C165.455 18.0247 164.984 18.4189 164.043 18.8831C163.564 19.1196 163.02 19.3604 162.41 19.6057C161.8 19.8509 161.251 20.0567 160.763 20.2231C160.275 20.3896 159.975 20.4728 159.861 20.4728C159.861 21.8479 160.458 22.7018 161.652 23.0346C162.218 23.1748 162.924 23.2448 163.769 23.2448V24.02C160.833 25.0097 159.269 25.5045 159.077 25.5045C158.729 25.5045 158.363 25.3294 157.98 24.979C157.596 24.6199 157.274 24.1514 157.013 23.5733C156.751 22.9952 156.621 22.3646 156.621 21.6814V12.6426C156.621 12.5901 156.821 12.4762 157.222 12.301C157.631 12.1171 158.141 11.9069 158.751 11.6704C159.36 11.4339 159.979 11.2018 160.606 10.9741C161.242 10.7376 161.8 10.545 162.279 10.3961C162.758 10.2472 163.059 10.1727 163.181 10.1727ZM162.24 14.4425C162.24 13.952 162.127 13.5272 161.9 13.1681C161.665 12.8178 161.364 12.6426 160.998 12.6426C160.641 12.6426 160.253 12.7784 159.835 13.0499V19.2641C161.438 18.8174 162.24 17.8496 162.24 16.3606V14.4425Z"/>
<path d="M170.482 6.63864V21.5238C170.482 22.6098 170.848 23.2273 171.58 23.3762V23.9674L168.875 25.5045C168.482 25.3469 168.117 25.0841 167.777 24.7163C167.437 24.3484 167.267 24.0025 167.267 23.6784V8.79324C167.267 7.69843 166.901 7.08095 166.169 6.94081V6.34961L168.875 4.81248C169.267 4.9789 169.632 5.24603 169.972 5.61389C170.312 5.97299 170.482 6.31458 170.482 6.63864Z"/>
<path d="M175.64 6.63864V21.5238C175.64 22.6098 176.006 23.2273 176.738 23.3762V23.9674L174.033 25.5045C173.64 25.3469 173.275 25.0841 172.935 24.7163C172.595 24.3484 172.425 24.0025 172.425 23.6784V8.79324C172.425 7.69843 172.059 7.08095 171.327 6.94081V6.34961L174.033 4.81248C174.425 4.9789 174.79 5.24603 175.13 5.61389C175.47 5.97299 175.64 6.31458 175.64 6.63864Z"/>
<path d="M178.812 19.6057C178.367 19.6057 177.984 19.2685 177.662 18.5941C177.339 17.9109 177.178 17.0744 177.178 16.0847V13.1813C177.178 13.0411 177.361 12.8528 177.727 12.6163C178.102 12.3711 178.568 12.1084 179.125 11.8281C179.691 11.5478 180.266 11.285 180.85 11.0398C181.434 10.7858 181.948 10.58 182.392 10.4223C182.837 10.2559 183.115 10.1727 183.229 10.1727C183.385 10.1727 183.525 10.2691 183.647 10.4617C183.777 10.6457 183.878 10.7946 183.947 10.9084C184.043 11.0661 184.156 11.2675 184.287 11.5128C184.418 11.758 184.548 11.9814 184.679 12.1828C184.897 12.612 185.189 12.8266 185.555 12.8266V13.3652C185.415 13.4265 185.25 13.5053 185.058 13.6017C184.866 13.698 184.657 13.8075 184.431 13.9301C183.298 14.5607 182.684 14.8761 182.588 14.8761C182.318 14.8761 182.026 14.4337 181.713 13.5491C181.399 12.6733 181.12 12.2354 180.876 12.2354C180.554 12.2354 180.393 12.5069 180.393 13.0499V16.3606C180.393 17.0788 180.554 17.4379 180.876 17.4379C180.955 17.4379 181.508 17.2014 182.536 16.7285C183.581 16.2643 184.204 16.0322 184.405 16.0322C184.84 16.0322 185.219 16.3781 185.542 17.0701C185.873 17.7795 186.038 18.6641 186.038 19.7239V22.7587C186.038 22.8989 185.833 23.0916 185.424 23.3368C185.023 23.5733 184.514 23.8317 183.895 24.1119C183.285 24.3922 182.662 24.6593 182.026 24.9133C181.39 25.1586 180.833 25.36 180.354 25.5177C179.874 25.6841 179.574 25.7673 179.452 25.7673C179.33 25.7673 179.212 25.6534 179.099 25.4257C178.96 25.1542 178.794 24.8039 178.602 24.3747C178.411 23.9455 178.215 23.5602 178.014 23.2186C177.779 22.7894 177.483 22.5748 177.126 22.5748V22.0362C177.274 21.9661 177.439 21.8873 177.622 21.7997C177.814 21.7033 178.032 21.5939 178.276 21.4712C179.4 20.8406 180.005 20.5253 180.092 20.5253C180.362 20.5253 180.698 21.0552 181.098 22.115C181.499 23.1748 181.826 23.7047 182.079 23.7047C182.253 23.7047 182.418 23.6346 182.575 23.4945C182.741 23.3456 182.823 23.1441 182.823 22.8901V19.5268C182.823 18.7211 182.601 18.3182 182.157 18.3182C182 18.3182 181.438 18.5327 180.471 18.9619C179.504 19.3911 178.951 19.6057 178.812 19.6057Z"/>
</mask>
<path d="M36.297 7.40063C36.1227 7.40063 35.9615 7.48822 35.8134 7.66339V18.778C35.8134 19.5312 35.857 20.1356 35.9441 20.591C36.0312 21.0464 36.2273 21.5019 36.5322 21.9573C37.1246 22.8157 38.4706 23.2448 40.5702 23.2448V24.02C40.4918 24.02 39.834 24.2652 38.5969 24.7557C37.3598 25.2549 36.6106 25.5045 36.3492 25.5045C35.9049 25.5045 35.4606 25.3644 35.0163 25.0841C34.572 24.8039 34.1669 24.4316 33.801 23.9674C33.4351 23.4945 33.1432 22.9733 32.9254 22.404C32.7076 21.8347 32.5987 21.261 32.5987 20.683V7.25612C32.5987 7.20357 32.7991 7.08971 33.1998 6.91454C33.6093 6.73061 34.1189 6.5204 34.7288 6.28392C35.3473 6.04744 35.9746 5.81534 36.6106 5.58762C37.2466 5.35114 37.8041 5.15845 38.2833 5.00955C38.7625 4.86066 39.063 4.78621 39.185 4.78621C39.2634 4.78621 39.3505 4.93073 39.4464 5.21976C39.5509 5.50879 39.6555 5.86351 39.76 6.28392C39.8645 6.69557 39.9647 7.08533 40.0606 7.45319C40.2435 8.1889 40.4352 8.73193 40.6356 9.08228C40.8446 9.43262 41.2367 9.60779 41.8117 9.60779V10.1464C41.4109 10.3129 40.7445 10.6282 39.8123 11.0924C38.8627 11.5566 38.3574 11.7887 38.2964 11.7887C38.035 11.7887 37.6996 11.0573 37.2901 9.59465C36.872 8.13197 36.5409 7.40063 36.297 7.40063Z" fill="#C8C8C8"/>
<path d="M42.6964 21.5763V12.6426C42.6964 12.5901 42.8968 12.4762 43.2976 12.301C43.707 12.1171 44.2167 11.9069 44.8265 11.6704C45.4364 11.4339 46.0549 11.2018 46.6822 10.9741C47.3182 10.7376 47.8758 10.545 48.3549 10.3961C48.8341 10.2472 49.1346 10.1727 49.2566 10.1727C49.4134 10.1727 49.6182 10.2778 49.8708 10.488C50.1235 10.6895 50.3761 10.9522 50.6288 11.2763C50.8901 11.6004 51.1079 11.9419 51.2822 12.301C51.4651 12.6514 51.5566 12.9711 51.5566 13.2601V23.0084C51.5566 23.0609 51.3606 23.1792 50.9685 23.3631C50.5852 23.547 50.1017 23.7616 49.518 24.0068C48.9343 24.2433 48.3288 24.4754 47.7015 24.7031C47.083 24.9309 46.5254 25.1236 46.0288 25.2812C45.5409 25.4301 45.2099 25.5045 45.0356 25.5045C44.7481 25.5045 44.4214 25.3294 44.0555 24.979C43.6896 24.6199 43.3716 24.1426 43.1016 23.547C42.8315 22.9514 42.6964 22.2945 42.6964 21.5763ZM47.2703 23.0346C47.6188 23.0346 47.9672 22.8901 48.3157 22.6011V14.6658C48.3157 13.3345 47.8627 12.6689 46.9566 12.6689C46.5907 12.6689 46.2422 12.8047 45.9112 13.0762V21.0377C45.9112 22.369 46.3642 23.0346 47.2703 23.0346Z" fill="#C8C8C8"/>
<path d="M53.4999 23.6784V14.5476C53.4999 13.9608 53.3735 13.4528 53.1209 13.0236C52.877 12.5945 52.5677 12.3799 52.1931 12.3799V11.7887C52.315 11.7624 53.2864 11.215 55.1072 10.1464C55.1769 10.164 55.251 10.1859 55.3294 10.2121C55.4078 10.2296 55.4906 10.2559 55.5777 10.291C55.7519 10.3523 55.9828 10.5274 56.2703 10.8165C56.5665 11.1055 56.7146 11.4383 56.7146 11.8149C56.8453 11.7361 57.1502 11.5653 57.6294 11.3026C58.9536 10.5493 59.7682 10.1727 60.0731 10.1727C60.3867 10.1727 60.7352 10.3347 61.1186 10.6588C61.5019 10.9741 61.7937 11.3595 61.9941 11.8149C62.0115 11.8062 62.1117 11.7536 62.2947 11.6573C62.4776 11.5609 62.7433 11.4252 63.0918 11.25C64.4683 10.5318 65.3047 10.1727 65.6009 10.1727C65.9842 10.1727 66.3545 10.3523 66.7117 10.7114C67.0776 11.0705 67.3738 11.4996 67.6003 11.9989C67.8355 12.4893 67.9532 12.9448 67.9532 13.3652V21.5238C67.9532 22.5135 68.3931 23.0959 69.273 23.2711V23.8623L66.3458 25.5045C65.9537 25.3469 65.5878 25.0841 65.2481 24.7163C64.917 24.3484 64.7515 24.0025 64.7515 23.6784V15.7431C64.7515 14.5695 64.599 13.79 64.2941 13.4046C63.9892 13.0192 63.5971 12.8266 63.118 12.8266L62.3339 12.9973V21.5238C62.3339 22.5135 62.7738 23.0959 63.6538 23.2711V23.8623L60.7265 25.5045C60.3345 25.3469 59.9686 25.0841 59.6288 24.7163C59.289 24.3484 59.1191 24.0025 59.1191 23.6784V15.8745C59.1191 13.8075 58.6313 12.774 57.6555 12.774L56.7146 12.9448V21.5238C56.7146 22.6098 57.0805 23.2273 57.8123 23.3762V23.9674L55.1072 25.5045C54.7152 25.3469 54.3493 25.0841 54.0095 24.7163C53.6698 24.3484 53.4999 24.0025 53.4999 23.6784Z" fill="#C8C8C8"/>
<path d="M69.8964 23.6784V14.5476C69.8964 13.9608 69.7701 13.4528 69.5175 13.0236C69.2735 12.5945 68.9642 12.3799 68.5896 12.3799V11.7887C68.7116 11.7624 69.683 11.215 71.5038 10.1464C71.5735 10.164 71.6475 10.1859 71.726 10.2121C71.8044 10.2296 71.8871 10.2559 71.9743 10.291C72.1485 10.3523 72.3794 10.5274 72.6669 10.8165C72.9631 11.1055 73.1112 11.4383 73.1112 11.8149C73.2419 11.7361 73.5468 11.5653 74.0259 11.3026C75.3502 10.5493 76.1647 10.1727 76.4697 10.1727C76.7833 10.1727 77.1318 10.3347 77.5151 10.6588C77.8984 10.9741 78.1903 11.3595 78.3907 11.8149C78.4081 11.8062 78.5083 11.7536 78.6912 11.6573C78.8742 11.5609 79.1399 11.4252 79.4884 11.25C80.8649 10.5318 81.7012 10.1727 81.9975 10.1727C82.3808 10.1727 82.7511 10.3523 83.1082 10.7114C83.4742 11.0705 83.7704 11.4996 83.9969 11.9989C84.2321 12.4893 84.3497 12.9448 84.3497 13.3652V21.5238C84.3497 22.5135 84.7897 23.0959 85.6696 23.2711V23.8623L82.7423 25.5045C82.3503 25.3469 81.9844 25.0841 81.6446 24.7163C81.3136 24.3484 81.148 24.0025 81.148 23.6784V15.7431C81.148 14.5695 80.9956 13.79 80.6907 13.4046C80.3857 13.0192 79.9937 12.8266 79.5145 12.8266L78.7304 12.9973V21.5238C78.7304 22.5135 79.1704 23.0959 80.0503 23.2711V23.8623L77.1231 25.5045C76.731 25.3469 76.3651 25.0841 76.0254 24.7163C75.6856 24.3484 75.5157 24.0025 75.5157 23.6784V15.8745C75.5157 13.8075 75.0278 12.774 74.0521 12.774L73.1112 12.9448V21.5238C73.1112 22.6098 73.4771 23.2273 74.2089 23.3762V23.9674L71.5038 25.5045C71.1118 25.3469 70.7459 25.0841 70.4061 24.7163C70.0663 24.3484 69.8964 24.0025 69.8964 23.6784Z" fill="#C8C8C8"/>
<path d="M89.5077 21.3136C89.5077 21.769 89.6471 22.1456 89.9259 22.4434C90.4748 23.0215 91.1369 23.039 91.9123 22.496V14.1272C91.9123 13.0236 91.5463 12.4018 90.8145 12.2616V11.6704L93.5196 10.1464C93.9117 10.3041 94.2776 10.5668 94.6173 10.9347C94.9571 11.3026 95.127 11.6485 95.127 11.9726V21.0902C95.127 21.6858 95.2533 22.1982 95.506 22.6274C95.7586 23.0565 96.0723 23.2711 96.4469 23.2711V23.8623C96.3162 23.8711 95.3404 24.4185 93.5196 25.5045C93.1102 25.3294 92.7399 25.0666 92.4088 24.7163C92.0778 24.3659 91.9123 24.0287 91.9123 23.7047L88.5668 25.5045C88.5407 25.487 88.5058 25.4695 88.4623 25.452C88.4274 25.4257 88.3839 25.3951 88.3316 25.36C88.2271 25.2987 88.0441 25.163 87.7827 24.9528C87.5214 24.7426 87.2949 24.5236 87.1032 24.2959C86.5631 23.7003 86.293 23.0259 86.293 22.2726V14.1272C86.293 13.1287 85.8574 12.5463 84.9862 12.3799V11.7887L87.9004 10.1464C88.2924 10.3041 88.6583 10.5668 88.9981 10.9347C89.3378 11.3026 89.5077 11.6485 89.5077 11.9726V21.3136Z" fill="#C8C8C8"/>
<path d="M97.0703 23.6784V14.5476C97.0703 13.9608 96.9439 13.4528 96.6913 13.0236C96.4474 12.5945 96.1381 12.3799 95.7635 12.3799V11.7887C95.8854 11.7624 96.8568 11.215 98.6777 10.1464C98.7473 10.164 98.8214 10.1859 98.8998 10.2121C98.9782 10.2296 99.061 10.2559 99.1481 10.291C99.3223 10.3523 99.5532 10.5274 99.8407 10.8165C100.137 11.1055 100.285 11.4383 100.285 11.8149C100.416 11.7361 100.721 11.5653 101.2 11.3026C102.524 10.5493 103.308 10.1727 103.552 10.1727C103.935 10.1727 104.306 10.3523 104.663 10.7114C105.029 11.0705 105.325 11.4996 105.551 11.9989C105.787 12.4893 105.904 12.9448 105.904 13.3652V21.5238C105.904 22.5135 106.344 23.0959 107.224 23.2711V23.8623L104.297 25.5045C103.905 25.3469 103.539 25.0841 103.199 24.7163C102.859 24.3484 102.69 24.0025 102.69 23.6784V15.8745C102.69 14.8673 102.576 14.1009 102.35 13.5754C102.132 13.0411 101.74 12.774 101.174 12.774L100.285 12.9448V21.5238C100.285 22.6098 100.651 23.2273 101.383 23.3762V23.9674L98.6777 25.5045C98.2856 25.3469 97.9197 25.0841 97.5799 24.7163C97.2402 24.3484 97.0703 24.0025 97.0703 23.6784Z" fill="#C8C8C8"/>
<path d="M107.442 6.80943V5.16721C107.442 5.14093 107.551 5.07962 107.769 4.98328C107.996 4.88693 108.257 4.78183 108.553 4.66797C108.858 4.55411 109.133 4.45776 109.377 4.37894C109.629 4.29135 109.786 4.24756 109.847 4.24756C109.969 4.24756 110.139 4.40083 110.357 4.70738C110.574 5.01393 110.683 5.32924 110.683 5.65331V7.61084C110.683 7.63712 110.574 7.69843 110.357 7.79477C110.148 7.89111 109.899 7.99622 109.612 8.11008C109.324 8.22394 109.054 8.32466 108.802 8.41225C108.549 8.49107 108.383 8.53049 108.305 8.53049C108.096 8.53049 107.9 8.35094 107.717 7.99184C107.534 7.63274 107.442 7.2386 107.442 6.80943ZM111.062 11.9989V21.5238C111.062 22.6098 111.428 23.2273 112.16 23.3762V23.9674L109.455 25.5045C109.063 25.3469 108.697 25.0841 108.357 24.7163C108.017 24.3484 107.848 24.0025 107.848 23.6784V14.1535C107.848 13.0499 107.482 12.428 106.75 12.2879V11.6967L109.455 10.1727C109.847 10.3304 110.213 10.5931 110.553 10.961C110.892 11.3288 111.062 11.6748 111.062 11.9989Z" fill="#C8C8C8"/>
<path d="M115.462 7.37436H116.22V10.5668H117.579L117.318 11.8938H116.22V21.5238C116.22 22.6098 116.586 23.2273 117.318 23.3762V23.9674L114.613 25.5045C114.221 25.3469 113.855 25.0841 113.515 24.7163C113.175 24.3484 113.006 24.0025 113.006 23.6784V11.92H111.908L112.169 10.7902C112.535 10.7902 112.958 10.6194 113.437 10.2778C113.916 9.93623 114.352 9.50269 114.744 8.97717C115.136 8.45166 115.375 7.91739 115.462 7.37436Z" fill="#C8C8C8"/>
<path d="M127.024 11.9726V22.6536C127.024 23.328 126.723 24.3046 126.122 25.5834C125.887 26.0739 125.612 26.595 125.299 27.1468C124.985 27.6986 124.667 28.2153 124.345 28.697C124.022 29.1875 123.722 29.586 123.443 29.8926C123.173 30.1991 122.96 30.3524 122.803 30.3524C122.507 30.3524 122.132 30.2867 121.679 30.1553C121.235 30.0327 120.777 29.8751 120.307 29.6824C119.845 29.4897 119.436 29.3058 119.078 29.1306L118.307 28.7365V27.9219H119.209C119.679 27.9219 120.198 27.7424 120.764 27.3833C121.33 27.0242 121.884 26.5118 122.424 25.8461C122.964 25.1892 123.426 24.4185 123.809 23.5339C121.805 24.4886 120.647 24.9659 120.333 24.9659C119.967 24.9659 119.619 24.7995 119.287 24.4667C118.965 24.1338 118.699 23.7047 118.49 23.1792C118.29 22.6536 118.19 22.1019 118.19 21.5238V14.1272C118.19 13.1287 117.754 12.5463 116.883 12.3799V11.7887L119.797 10.1464C120.189 10.3041 120.555 10.5668 120.895 10.9347C121.235 11.3026 121.404 11.6485 121.404 11.9726V19.2641C121.404 20.5166 121.601 21.353 121.993 21.7734C122.385 22.1938 122.99 22.404 123.809 22.404V14.1272C123.809 13.0236 123.443 12.4018 122.711 12.2616V11.6704L125.416 10.1464C125.808 10.3041 126.174 10.5668 126.514 10.9347C126.854 11.3026 127.024 11.6485 127.024 11.9726Z" fill="#C8C8C8"/>
<path d="M136.83 16.9256C136.377 16.9256 135.989 16.584 135.667 15.9008C135.353 15.2176 135.197 14.3812 135.197 13.3915V7.79477C135.197 7.66339 135.38 7.47508 135.745 7.22984C136.12 6.9846 136.586 6.72623 137.144 6.45471C137.71 6.17444 138.285 5.9073 138.869 5.65331C139.452 5.39931 139.962 5.19348 140.398 5.03583C140.842 4.86942 141.121 4.78621 141.234 4.78621C141.452 4.78621 141.757 5.14531 142.149 5.86351C142.192 5.9511 142.245 6.0562 142.306 6.17882C142.375 6.30144 142.454 6.43719 142.541 6.58609C142.628 6.73499 142.702 6.87512 142.763 7.0065C142.833 7.13788 142.894 7.25174 142.946 7.34808C143.181 7.77725 143.477 7.99184 143.835 7.99184V8.53049C143.695 8.5918 143.53 8.67062 143.338 8.76697C143.146 8.86331 142.929 8.97279 142.685 9.09541C141.552 9.71727 140.947 10.0282 140.868 10.0282C140.598 10.0282 140.263 9.49831 139.862 8.43852C139.461 7.3875 139.134 6.86198 138.882 6.86198C138.559 6.86198 138.398 7.12912 138.398 7.66339V13.6674C138.398 14.3856 138.559 14.7447 138.882 14.7447C138.96 14.7447 139.513 14.5082 140.541 14.0352C141.587 13.571 142.214 13.3389 142.423 13.3389C142.859 13.3389 143.238 13.6849 143.56 14.3768C143.883 15.06 144.044 15.9446 144.044 17.0307V22.7587C144.044 22.8989 143.839 23.0916 143.43 23.3368C143.029 23.5733 142.519 23.8317 141.901 24.1119C141.291 24.3922 140.668 24.6593 140.032 24.9133C139.396 25.1586 138.838 25.36 138.359 25.5177C137.889 25.6841 137.592 25.7673 137.47 25.7673C137.279 25.7673 137.091 25.6447 136.909 25.3994C136.726 25.1454 136.547 24.8345 136.373 24.4667C136.207 24.09 136.042 23.7178 135.876 23.3499C135.711 22.9733 135.545 22.6624 135.38 22.4172C135.214 22.1632 135.044 22.0362 134.87 22.0362V21.4975C135.018 21.4362 135.184 21.3574 135.367 21.261C135.558 21.1647 135.767 21.0552 135.994 20.9326C137.135 20.302 137.749 19.9867 137.836 19.9867C138.106 19.9867 138.49 20.6041 138.986 21.8391C139.466 23.0828 139.831 23.7047 140.084 23.7047C140.267 23.7047 140.437 23.6346 140.594 23.4945C140.759 23.3456 140.842 23.1441 140.842 22.8901V16.8467C140.842 16.0322 140.62 15.6249 140.176 15.6249C140.019 15.6249 139.457 15.8395 138.49 16.2687C137.497 16.7066 136.943 16.9256 136.83 16.9256Z" fill="#C8C8C8"/>
<path d="M145.843 28.4606V14.3111C145.843 13.8995 145.73 13.4966 145.503 13.1024C145.286 12.7083 144.972 12.485 144.563 12.4324V11.8412C144.685 11.8237 145.656 11.2763 147.477 10.199C147.886 10.3742 148.256 10.6369 148.588 10.9873C148.919 11.3376 149.084 11.666 149.084 11.9726C150.992 10.7902 152.107 10.199 152.43 10.199C152.552 10.199 152.787 10.3347 153.135 10.6063C153.484 10.8778 153.832 11.2807 154.181 11.8149C154.529 12.3492 154.703 12.8922 154.703 13.444V23.0346C154.703 23.0872 154.551 23.1879 154.246 23.3368C153.941 23.4857 153.549 23.6609 153.07 23.8623C152.591 24.055 152.09 24.2521 151.567 24.4535C151.044 24.6462 150.556 24.8214 150.103 24.979C149.65 25.1367 149.302 25.2505 149.058 25.3206V26.306C149.058 27.4008 149.424 28.0226 150.156 28.1715V28.7627L147.451 30.2999C147.059 30.1334 146.693 29.8663 146.353 29.4984C146.013 29.1306 145.843 28.7846 145.843 28.4606ZM150.13 12.6689C149.79 12.6689 149.441 12.8134 149.084 13.1024V23.7835C149.398 23.7835 149.742 23.7134 150.117 23.5733C150.491 23.4244 150.813 23.2405 151.084 23.0215C151.354 22.8025 151.489 22.5792 151.489 22.3515V14.6658C151.489 13.3345 151.036 12.6689 150.13 12.6689Z" fill="#C8C8C8"/>
<path d="M163.181 10.1727C163.277 10.1727 163.499 10.3085 163.847 10.58C164.204 10.8515 164.562 11.2369 164.919 11.7361C165.276 12.2354 165.455 12.7171 165.455 13.1813V17.7007C165.455 18.0247 164.984 18.4189 164.043 18.8831C163.564 19.1196 163.02 19.3604 162.41 19.6057C161.8 19.8509 161.251 20.0567 160.763 20.2231C160.275 20.3896 159.975 20.4728 159.861 20.4728C159.861 21.8479 160.458 22.7018 161.652 23.0346C162.218 23.1748 162.924 23.2448 163.769 23.2448V24.02C160.833 25.0097 159.269 25.5045 159.077 25.5045C158.729 25.5045 158.363 25.3294 157.98 24.979C157.596 24.6199 157.274 24.1514 157.013 23.5733C156.751 22.9952 156.621 22.3646 156.621 21.6814V12.6426C156.621 12.5901 156.821 12.4762 157.222 12.301C157.631 12.1171 158.141 11.9069 158.751 11.6704C159.36 11.4339 159.979 11.2018 160.606 10.9741C161.242 10.7376 161.8 10.545 162.279 10.3961C162.758 10.2472 163.059 10.1727 163.181 10.1727ZM162.24 14.4425C162.24 13.952 162.127 13.5272 161.9 13.1681C161.665 12.8178 161.364 12.6426 160.998 12.6426C160.641 12.6426 160.253 12.7784 159.835 13.0499V19.2641C161.438 18.8174 162.24 17.8496 162.24 16.3606V14.4425Z" fill="#C8C8C8"/>
<path d="M170.482 6.63864V21.5238C170.482 22.6098 170.848 23.2273 171.58 23.3762V23.9674L168.875 25.5045C168.482 25.3469 168.117 25.0841 167.777 24.7163C167.437 24.3484 167.267 24.0025 167.267 23.6784V8.79324C167.267 7.69843 166.901 7.08095 166.169 6.94081V6.34961L168.875 4.81248C169.267 4.9789 169.632 5.24603 169.972 5.61389C170.312 5.97299 170.482 6.31458 170.482 6.63864Z" fill="#C8C8C8"/>
<path d="M175.64 6.63864V21.5238C175.64 22.6098 176.006 23.2273 176.738 23.3762V23.9674L174.033 25.5045C173.64 25.3469 173.275 25.0841 172.935 24.7163C172.595 24.3484 172.425 24.0025 172.425 23.6784V8.79324C172.425 7.69843 172.059 7.08095 171.327 6.94081V6.34961L174.033 4.81248C174.425 4.9789 174.79 5.24603 175.13 5.61389C175.47 5.97299 175.64 6.31458 175.64 6.63864Z" fill="#C8C8C8"/>
<path d="M178.812 19.6057C178.367 19.6057 177.984 19.2685 177.662 18.5941C177.339 17.9109 177.178 17.0744 177.178 16.0847V13.1813C177.178 13.0411 177.361 12.8528 177.727 12.6163C178.102 12.3711 178.568 12.1084 179.125 11.8281C179.691 11.5478 180.266 11.285 180.85 11.0398C181.434 10.7858 181.948 10.58 182.392 10.4223C182.837 10.2559 183.115 10.1727 183.229 10.1727C183.385 10.1727 183.525 10.2691 183.647 10.4617C183.777 10.6457 183.878 10.7946 183.947 10.9084C184.043 11.0661 184.156 11.2675 184.287 11.5128C184.418 11.758 184.548 11.9814 184.679 12.1828C184.897 12.612 185.189 12.8266 185.555 12.8266V13.3652C185.415 13.4265 185.25 13.5053 185.058 13.6017C184.866 13.698 184.657 13.8075 184.431 13.9301C183.298 14.5607 182.684 14.8761 182.588 14.8761C182.318 14.8761 182.026 14.4337 181.713 13.5491C181.399 12.6733 181.12 12.2354 180.876 12.2354C180.554 12.2354 180.393 12.5069 180.393 13.0499V16.3606C180.393 17.0788 180.554 17.4379 180.876 17.4379C180.955 17.4379 181.508 17.2014 182.536 16.7285C183.581 16.2643 184.204 16.0322 184.405 16.0322C184.84 16.0322 185.219 16.3781 185.542 17.0701C185.873 17.7795 186.038 18.6641 186.038 19.7239V22.7587C186.038 22.8989 185.833 23.0916 185.424 23.3368C185.023 23.5733 184.514 23.8317 183.895 24.1119C183.285 24.3922 182.662 24.6593 182.026 24.9133C181.39 25.1586 180.833 25.36 180.354 25.5177C179.874 25.6841 179.574 25.7673 179.452 25.7673C179.33 25.7673 179.212 25.6534 179.099 25.4257C178.96 25.1542 178.794 24.8039 178.602 24.3747C178.411 23.9455 178.215 23.5602 178.014 23.2186C177.779 22.7894 177.483 22.5748 177.126 22.5748V22.0362C177.274 21.9661 177.439 21.8873 177.622 21.7997C177.814 21.7033 178.032 21.5939 178.276 21.4712C179.4 20.8406 180.005 20.5253 180.092 20.5253C180.362 20.5253 180.698 21.0552 181.098 22.115C181.499 23.1748 181.826 23.7047 182.079 23.7047C182.253 23.7047 182.418 23.6346 182.575 23.4945C182.741 23.3456 182.823 23.1441 182.823 22.8901V19.5268C182.823 18.7211 182.601 18.3182 182.157 18.3182C182 18.3182 181.438 18.5327 180.471 18.9619C179.504 19.3911 178.951 19.6057 178.812 19.6057Z" fill="#C8C8C8"/>
<path d="M36.297 7.40063C36.1227 7.40063 35.9615 7.48822 35.8134 7.66339V18.778C35.8134 19.5312 35.857 20.1356 35.9441 20.591C36.0312 21.0464 36.2273 21.5019 36.5322 21.9573C37.1246 22.8157 38.4706 23.2448 40.5702 23.2448V24.02C40.4918 24.02 39.834 24.2652 38.5969 24.7557C37.3598 25.2549 36.6106 25.5045 36.3492 25.5045C35.9049 25.5045 35.4606 25.3644 35.0163 25.0841C34.572 24.8039 34.1669 24.4316 33.801 23.9674C33.4351 23.4945 33.1432 22.9733 32.9254 22.404C32.7076 21.8347 32.5987 21.261 32.5987 20.683V7.25612C32.5987 7.20357 32.7991 7.08971 33.1998 6.91454C33.6093 6.73061 34.1189 6.5204 34.7288 6.28392C35.3473 6.04744 35.9746 5.81534 36.6106 5.58762C37.2466 5.35114 37.8041 5.15845 38.2833 5.00955C38.7625 4.86066 39.063 4.78621 39.185 4.78621C39.2634 4.78621 39.3505 4.93073 39.4464 5.21976C39.5509 5.50879 39.6555 5.86351 39.76 6.28392C39.8645 6.69557 39.9647 7.08533 40.0606 7.45319C40.2435 8.1889 40.4352 8.73193 40.6356 9.08228C40.8446 9.43262 41.2367 9.60779 41.8117 9.60779V10.1464C41.4109 10.3129 40.7445 10.6282 39.8123 11.0924C38.8627 11.5566 38.3574 11.7887 38.2964 11.7887C38.035 11.7887 37.6996 11.0573 37.2901 9.59465C36.872 8.13197 36.5409 7.40063 36.297 7.40063Z" stroke="#353535" stroke-width="8" mask="url(#path-2-outside-1_526_531)"/>
<path d="M42.6964 21.5763V12.6426C42.6964 12.5901 42.8968 12.4762 43.2976 12.301C43.707 12.1171 44.2167 11.9069 44.8265 11.6704C45.4364 11.4339 46.0549 11.2018 46.6822 10.9741C47.3182 10.7376 47.8758 10.545 48.3549 10.3961C48.8341 10.2472 49.1346 10.1727 49.2566 10.1727C49.4134 10.1727 49.6182 10.2778 49.8708 10.488C50.1235 10.6895 50.3761 10.9522 50.6288 11.2763C50.8901 11.6004 51.1079 11.9419 51.2822 12.301C51.4651 12.6514 51.5566 12.9711 51.5566 13.2601V23.0084C51.5566 23.0609 51.3606 23.1792 50.9685 23.3631C50.5852 23.547 50.1017 23.7616 49.518 24.0068C48.9343 24.2433 48.3288 24.4754 47.7015 24.7031C47.083 24.9309 46.5254 25.1236 46.0288 25.2812C45.5409 25.4301 45.2099 25.5045 45.0356 25.5045C44.7481 25.5045 44.4214 25.3294 44.0555 24.979C43.6896 24.6199 43.3716 24.1426 43.1016 23.547C42.8315 22.9514 42.6964 22.2945 42.6964 21.5763ZM47.2703 23.0346C47.6188 23.0346 47.9672 22.8901 48.3157 22.6011V14.6658C48.3157 13.3345 47.8627 12.6689 46.9566 12.6689C46.5907 12.6689 46.2422 12.8047 45.9112 13.0762V21.0377C45.9112 22.369 46.3642 23.0346 47.2703 23.0346Z" stroke="#353535" stroke-width="8" mask="url(#path-2-outside-1_526_531)"/>
<path d="M53.4999 23.6784V14.5476C53.4999 13.9608 53.3735 13.4528 53.1209 13.0236C52.877 12.5945 52.5677 12.3799 52.1931 12.3799V11.7887C52.315 11.7624 53.2864 11.215 55.1072 10.1464C55.1769 10.164 55.251 10.1859 55.3294 10.2121C55.4078 10.2296 55.4906 10.2559 55.5777 10.291C55.7519 10.3523 55.9828 10.5274 56.2703 10.8165C56.5665 11.1055 56.7146 11.4383 56.7146 11.8149C56.8453 11.7361 57.1502 11.5653 57.6294 11.3026C58.9536 10.5493 59.7682 10.1727 60.0731 10.1727C60.3867 10.1727 60.7352 10.3347 61.1186 10.6588C61.5019 10.9741 61.7937 11.3595 61.9941 11.8149C62.0115 11.8062 62.1117 11.7536 62.2947 11.6573C62.4776 11.5609 62.7433 11.4252 63.0918 11.25C64.4683 10.5318 65.3047 10.1727 65.6009 10.1727C65.9842 10.1727 66.3545 10.3523 66.7117 10.7114C67.0776 11.0705 67.3738 11.4996 67.6003 11.9989C67.8355 12.4893 67.9532 12.9448 67.9532 13.3652V21.5238C67.9532 22.5135 68.3931 23.0959 69.273 23.2711V23.8623L66.3458 25.5045C65.9537 25.3469 65.5878 25.0841 65.2481 24.7163C64.917 24.3484 64.7515 24.0025 64.7515 23.6784V15.7431C64.7515 14.5695 64.599 13.79 64.2941 13.4046C63.9892 13.0192 63.5971 12.8266 63.118 12.8266L62.3339 12.9973V21.5238C62.3339 22.5135 62.7738 23.0959 63.6538 23.2711V23.8623L60.7265 25.5045C60.3345 25.3469 59.9686 25.0841 59.6288 24.7163C59.289 24.3484 59.1191 24.0025 59.1191 23.6784V15.8745C59.1191 13.8075 58.6313 12.774 57.6555 12.774L56.7146 12.9448V21.5238C56.7146 22.6098 57.0805 23.2273 57.8123 23.3762V23.9674L55.1072 25.5045C54.7152 25.3469 54.3493 25.0841 54.0095 24.7163C53.6698 24.3484 53.4999 24.0025 53.4999 23.6784Z" stroke="#353535" stroke-width="8" mask="url(#path-2-outside-1_526_531)"/>
<path d="M69.8964 23.6784V14.5476C69.8964 13.9608 69.7701 13.4528 69.5175 13.0236C69.2735 12.5945 68.9642 12.3799 68.5896 12.3799V11.7887C68.7116 11.7624 69.683 11.215 71.5038 10.1464C71.5735 10.164 71.6475 10.1859 71.726 10.2121C71.8044 10.2296 71.8871 10.2559 71.9743 10.291C72.1485 10.3523 72.3794 10.5274 72.6669 10.8165C72.9631 11.1055 73.1112 11.4383 73.1112 11.8149C73.2419 11.7361 73.5468 11.5653 74.0259 11.3026C75.3502 10.5493 76.1647 10.1727 76.4697 10.1727C76.7833 10.1727 77.1318 10.3347 77.5151 10.6588C77.8984 10.9741 78.1903 11.3595 78.3907 11.8149C78.4081 11.8062 78.5083 11.7536 78.6912 11.6573C78.8742 11.5609 79.1399 11.4252 79.4884 11.25C80.8649 10.5318 81.7012 10.1727 81.9975 10.1727C82.3808 10.1727 82.7511 10.3523 83.1082 10.7114C83.4742 11.0705 83.7704 11.4996 83.9969 11.9989C84.2321 12.4893 84.3497 12.9448 84.3497 13.3652V21.5238C84.3497 22.5135 84.7897 23.0959 85.6696 23.2711V23.8623L82.7423 25.5045C82.3503 25.3469 81.9844 25.0841 81.6446 24.7163C81.3136 24.3484 81.148 24.0025 81.148 23.6784V15.7431C81.148 14.5695 80.9956 13.79 80.6907 13.4046C80.3857 13.0192 79.9937 12.8266 79.5145 12.8266L78.7304 12.9973V21.5238C78.7304 22.5135 79.1704 23.0959 80.0503 23.2711V23.8623L77.1231 25.5045C76.731 25.3469 76.3651 25.0841 76.0254 24.7163C75.6856 24.3484 75.5157 24.0025 75.5157 23.6784V15.8745C75.5157 13.8075 75.0278 12.774 74.0521 12.774L73.1112 12.9448V21.5238C73.1112 22.6098 73.4771 23.2273 74.2089 23.3762V23.9674L71.5038 25.5045C71.1118 25.3469 70.7459 25.0841 70.4061 24.7163C70.0663 24.3484 69.8964 24.0025 69.8964 23.6784Z" stroke="#353535" stroke-width="8" mask="url(#path-2-outside-1_526_531)"/>
<path d="M89.5077 21.3136C89.5077 21.769 89.6471 22.1456 89.9259 22.4434C90.4748 23.0215 91.1369 23.039 91.9123 22.496V14.1272C91.9123 13.0236 91.5463 12.4018 90.8145 12.2616V11.6704L93.5196 10.1464C93.9117 10.3041 94.2776 10.5668 94.6173 10.9347C94.9571 11.3026 95.127 11.6485 95.127 11.9726V21.0902C95.127 21.6858 95.2533 22.1982 95.506 22.6274C95.7586 23.0565 96.0723 23.2711 96.4469 23.2711V23.8623C96.3162 23.8711 95.3404 24.4185 93.5196 25.5045C93.1102 25.3294 92.7399 25.0666 92.4088 24.7163C92.0778 24.3659 91.9123 24.0287 91.9123 23.7047L88.5668 25.5045C88.5407 25.487 88.5058 25.4695 88.4623 25.452C88.4274 25.4257 88.3839 25.3951 88.3316 25.36C88.2271 25.2987 88.0441 25.163 87.7827 24.9528C87.5214 24.7426 87.2949 24.5236 87.1032 24.2959C86.5631 23.7003 86.293 23.0259 86.293 22.2726V14.1272C86.293 13.1287 85.8574 12.5463 84.9862 12.3799V11.7887L87.9004 10.1464C88.2924 10.3041 88.6583 10.5668 88.9981 10.9347C89.3378 11.3026 89.5077 11.6485 89.5077 11.9726V21.3136Z" stroke="#353535" stroke-width="8" mask="url(#path-2-outside-1_526_531)"/>
<path d="M97.0703 23.6784V14.5476C97.0703 13.9608 96.9439 13.4528 96.6913 13.0236C96.4474 12.5945 96.1381 12.3799 95.7635 12.3799V11.7887C95.8854 11.7624 96.8568 11.215 98.6777 10.1464C98.7473 10.164 98.8214 10.1859 98.8998 10.2121C98.9782 10.2296 99.061 10.2559 99.1481 10.291C99.3223 10.3523 99.5532 10.5274 99.8407 10.8165C100.137 11.1055 100.285 11.4383 100.285 11.8149C100.416 11.7361 100.721 11.5653 101.2 11.3026C102.524 10.5493 103.308 10.1727 103.552 10.1727C103.935 10.1727 104.306 10.3523 104.663 10.7114C105.029 11.0705 105.325 11.4996 105.551 11.9989C105.787 12.4893 105.904 12.9448 105.904 13.3652V21.5238C105.904 22.5135 106.344 23.0959 107.224 23.2711V23.8623L104.297 25.5045C103.905 25.3469 103.539 25.0841 103.199 24.7163C102.859 24.3484 102.69 24.0025 102.69 23.6784V15.8745C102.69 14.8673 102.576 14.1009 102.35 13.5754C102.132 13.0411 101.74 12.774 101.174 12.774L100.285 12.9448V21.5238C100.285 22.6098 100.651 23.2273 101.383 23.3762V23.9674L98.6777 25.5045C98.2856 25.3469 97.9197 25.0841 97.5799 24.7163C97.2402 24.3484 97.0703 24.0025 97.0703 23.6784Z" stroke="#353535" stroke-width="8" mask="url(#path-2-outside-1_526_531)"/>
<path d="M107.442 6.80943V5.16721C107.442 5.14093 107.551 5.07962 107.769 4.98328C107.996 4.88693 108.257 4.78183 108.553 4.66797C108.858 4.55411 109.133 4.45776 109.377 4.37894C109.629 4.29135 109.786 4.24756 109.847 4.24756C109.969 4.24756 110.139 4.40083 110.357 4.70738C110.574 5.01393 110.683 5.32924 110.683 5.65331V7.61084C110.683 7.63712 110.574 7.69843 110.357 7.79477C110.148 7.89111 109.899 7.99622 109.612 8.11008C109.324 8.22394 109.054 8.32466 108.802 8.41225C108.549 8.49107 108.383 8.53049 108.305 8.53049C108.096 8.53049 107.9 8.35094 107.717 7.99184C107.534 7.63274 107.442 7.2386 107.442 6.80943ZM111.062 11.9989V21.5238C111.062 22.6098 111.428 23.2273 112.16 23.3762V23.9674L109.455 25.5045C109.063 25.3469 108.697 25.0841 108.357 24.7163C108.017 24.3484 107.848 24.0025 107.848 23.6784V14.1535C107.848 13.0499 107.482 12.428 106.75 12.2879V11.6967L109.455 10.1727C109.847 10.3304 110.213 10.5931 110.553 10.961C110.892 11.3288 111.062 11.6748 111.062 11.9989Z" stroke="#353535" stroke-width="8" mask="url(#path-2-outside-1_526_531)"/>
<path d="M115.462 7.37436H116.22V10.5668H117.579L117.318 11.8938H116.22V21.5238C116.22 22.6098 116.586 23.2273 117.318 23.3762V23.9674L114.613 25.5045C114.221 25.3469 113.855 25.0841 113.515 24.7163C113.175 24.3484 113.006 24.0025 113.006 23.6784V11.92H111.908L112.169 10.7902C112.535 10.7902 112.958 10.6194 113.437 10.2778C113.916 9.93623 114.352 9.50269 114.744 8.97717C115.136 8.45166 115.375 7.91739 115.462 7.37436Z" stroke="#353535" stroke-width="8" mask="url(#path-2-outside-1_526_531)"/>
<path d="M127.024 11.9726V22.6536C127.024 23.328 126.723 24.3046 126.122 25.5834C125.887 26.0739 125.612 26.595 125.299 27.1468C124.985 27.6986 124.667 28.2153 124.345 28.697C124.022 29.1875 123.722 29.586 123.443 29.8926C123.173 30.1991 122.96 30.3524 122.803 30.3524C122.507 30.3524 122.132 30.2867 121.679 30.1553C121.235 30.0327 120.777 29.8751 120.307 29.6824C119.845 29.4897 119.436 29.3058 119.078 29.1306L118.307 28.7365V27.9219H119.209C119.679 27.9219 120.198 27.7424 120.764 27.3833C121.33 27.0242 121.884 26.5118 122.424 25.8461C122.964 25.1892 123.426 24.4185 123.809 23.5339C121.805 24.4886 120.647 24.9659 120.333 24.9659C119.967 24.9659 119.619 24.7995 119.287 24.4667C118.965 24.1338 118.699 23.7047 118.49 23.1792C118.29 22.6536 118.19 22.1019 118.19 21.5238V14.1272C118.19 13.1287 117.754 12.5463 116.883 12.3799V11.7887L119.797 10.1464C120.189 10.3041 120.555 10.5668 120.895 10.9347C121.235 11.3026 121.404 11.6485 121.404 11.9726V19.2641C121.404 20.5166 121.601 21.353 121.993 21.7734C122.385 22.1938 122.99 22.404 123.809 22.404V14.1272C123.809 13.0236 123.443 12.4018 122.711 12.2616V11.6704L125.416 10.1464C125.808 10.3041 126.174 10.5668 126.514 10.9347C126.854 11.3026 127.024 11.6485 127.024 11.9726Z" stroke="#353535" stroke-width="8" mask="url(#path-2-outside-1_526_531)"/>
<path d="M136.83 16.9256C136.377 16.9256 135.989 16.584 135.667 15.9008C135.353 15.2176 135.197 14.3812 135.197 13.3915V7.79477C135.197 7.66339 135.38 7.47508 135.745 7.22984C136.12 6.9846 136.586 6.72623 137.144 6.45471C137.71 6.17444 138.285 5.9073 138.869 5.65331C139.452 5.39931 139.962 5.19348 140.398 5.03583C140.842 4.86942 141.121 4.78621 141.234 4.78621C141.452 4.78621 141.757 5.14531 142.149 5.86351C142.192 5.9511 142.245 6.0562 142.306 6.17882C142.375 6.30144 142.454 6.43719 142.541 6.58609C142.628 6.73499 142.702 6.87512 142.763 7.0065C142.833 7.13788 142.894 7.25174 142.946 7.34808C143.181 7.77725 143.477 7.99184 143.835 7.99184V8.53049C143.695 8.5918 143.53 8.67062 143.338 8.76697C143.146 8.86331 142.929 8.97279 142.685 9.09541C141.552 9.71727 140.947 10.0282 140.868 10.0282C140.598 10.0282 140.263 9.49831 139.862 8.43852C139.461 7.3875 139.134 6.86198 138.882 6.86198C138.559 6.86198 138.398 7.12912 138.398 7.66339V13.6674C138.398 14.3856 138.559 14.7447 138.882 14.7447C138.96 14.7447 139.513 14.5082 140.541 14.0352C141.587 13.571 142.214 13.3389 142.423 13.3389C142.859 13.3389 143.238 13.6849 143.56 14.3768C143.883 15.06 144.044 15.9446 144.044 17.0307V22.7587C144.044 22.8989 143.839 23.0916 143.43 23.3368C143.029 23.5733 142.519 23.8317 141.901 24.1119C141.291 24.3922 140.668 24.6593 140.032 24.9133C139.396 25.1586 138.838 25.36 138.359 25.5177C137.889 25.6841 137.592 25.7673 137.47 25.7673C137.279 25.7673 137.091 25.6447 136.909 25.3994C136.726 25.1454 136.547 24.8345 136.373 24.4667C136.207 24.09 136.042 23.7178 135.876 23.3499C135.711 22.9733 135.545 22.6624 135.38 22.4172C135.214 22.1632 135.044 22.0362 134.87 22.0362V21.4975C135.018 21.4362 135.184 21.3574 135.367 21.261C135.558 21.1647 135.767 21.0552 135.994 20.9326C137.135 20.302 137.749 19.9867 137.836 19.9867C138.106 19.9867 138.49 20.6041 138.986 21.8391C139.466 23.0828 139.831 23.7047 140.084 23.7047C140.267 23.7047 140.437 23.6346 140.594 23.4945C140.759 23.3456 140.842 23.1441 140.842 22.8901V16.8467C140.842 16.0322 140.62 15.6249 140.176 15.6249C140.019 15.6249 139.457 15.8395 138.49 16.2687C137.497 16.7066 136.943 16.9256 136.83 16.9256Z" stroke="#353535" stroke-width="8" mask="url(#path-2-outside-1_526_531)"/>
<path d="M145.843 28.4606V14.3111C145.843 13.8995 145.73 13.4966 145.503 13.1024C145.286 12.7083 144.972 12.485 144.563 12.4324V11.8412C144.685 11.8237 145.656 11.2763 147.477 10.199C147.886 10.3742 148.256 10.6369 148.588 10.9873C148.919 11.3376 149.084 11.666 149.084 11.9726C150.992 10.7902 152.107 10.199 152.43 10.199C152.552 10.199 152.787 10.3347 153.135 10.6063C153.484 10.8778 153.832 11.2807 154.181 11.8149C154.529 12.3492 154.703 12.8922 154.703 13.444V23.0346C154.703 23.0872 154.551 23.1879 154.246 23.3368C153.941 23.4857 153.549 23.6609 153.07 23.8623C152.591 24.055 152.09 24.2521 151.567 24.4535C151.044 24.6462 150.556 24.8214 150.103 24.979C149.65 25.1367 149.302 25.2505 149.058 25.3206V26.306C149.058 27.4008 149.424 28.0226 150.156 28.1715V28.7627L147.451 30.2999C147.059 30.1334 146.693 29.8663 146.353 29.4984C146.013 29.1306 145.843 28.7846 145.843 28.4606ZM150.13 12.6689C149.79 12.6689 149.441 12.8134 149.084 13.1024V23.7835C149.398 23.7835 149.742 23.7134 150.117 23.5733C150.491 23.4244 150.813 23.2405 151.084 23.0215C151.354 22.8025 151.489 22.5792 151.489 22.3515V14.6658C151.489 13.3345 151.036 12.6689 150.13 12.6689Z" stroke="#353535" stroke-width="8" mask="url(#path-2-outside-1_526_531)"/>
<path d="M163.181 10.1727C163.277 10.1727 163.499 10.3085 163.847 10.58C164.204 10.8515 164.562 11.2369 164.919 11.7361C165.276 12.2354 165.455 12.7171 165.455 13.1813V17.7007C165.455 18.0247 164.984 18.4189 164.043 18.8831C163.564 19.1196 163.02 19.3604 162.41 19.6057C161.8 19.8509 161.251 20.0567 160.763 20.2231C160.275 20.3896 159.975 20.4728 159.861 20.4728C159.861 21.8479 160.458 22.7018 161.652 23.0346C162.218 23.1748 162.924 23.2448 163.769 23.2448V24.02C160.833 25.0097 159.269 25.5045 159.077 25.5045C158.729 25.5045 158.363 25.3294 157.98 24.979C157.596 24.6199 157.274 24.1514 157.013 23.5733C156.751 22.9952 156.621 22.3646 156.621 21.6814V12.6426C156.621 12.5901 156.821 12.4762 157.222 12.301C157.631 12.1171 158.141 11.9069 158.751 11.6704C159.36 11.4339 159.979 11.2018 160.606 10.9741C161.242 10.7376 161.8 10.545 162.279 10.3961C162.758 10.2472 163.059 10.1727 163.181 10.1727ZM162.24 14.4425C162.24 13.952 162.127 13.5272 161.9 13.1681C161.665 12.8178 161.364 12.6426 160.998 12.6426C160.641 12.6426 160.253 12.7784 159.835 13.0499V19.2641C161.438 18.8174 162.24 17.8496 162.24 16.3606V14.4425Z" stroke="#353535" stroke-width="8" mask="url(#path-2-outside-1_526_531)"/>
<path d="M170.482 6.63864V21.5238C170.482 22.6098 170.848 23.2273 171.58 23.3762V23.9674L168.875 25.5045C168.482 25.3469 168.117 25.0841 167.777 24.7163C167.437 24.3484 167.267 24.0025 167.267 23.6784V8.79324C167.267 7.69843 166.901 7.08095 166.169 6.94081V6.34961L168.875 4.81248C169.267 4.9789 169.632 5.24603 169.972 5.61389C170.312 5.97299 170.482 6.31458 170.482 6.63864Z" stroke="#353535" stroke-width="8" mask="url(#path-2-outside-1_526_531)"/>
<path d="M175.64 6.63864V21.5238C175.64 22.6098 176.006 23.2273 176.738 23.3762V23.9674L174.033 25.5045C173.64 25.3469 173.275 25.0841 172.935 24.7163C172.595 24.3484 172.425 24.0025 172.425 23.6784V8.79324C172.425 7.69843 172.059 7.08095 171.327 6.94081V6.34961L174.033 4.81248C174.425 4.9789 174.79 5.24603 175.13 5.61389C175.47 5.97299 175.64 6.31458 175.64 6.63864Z" stroke="#353535" stroke-width="8" mask="url(#path-2-outside-1_526_531)"/>
<path d="M178.812 19.6057C178.367 19.6057 177.984 19.2685 177.662 18.5941C177.339 17.9109 177.178 17.0744 177.178 16.0847V13.1813C177.178 13.0411 177.361 12.8528 177.727 12.6163C178.102 12.3711 178.568 12.1084 179.125 11.8281C179.691 11.5478 180.266 11.285 180.85 11.0398C181.434 10.7858 181.948 10.58 182.392 10.4223C182.837 10.2559 183.115 10.1727 183.229 10.1727C183.385 10.1727 183.525 10.2691 183.647 10.4617C183.777 10.6457 183.878 10.7946 183.947 10.9084C184.043 11.0661 184.156 11.2675 184.287 11.5128C184.418 11.758 184.548 11.9814 184.679 12.1828C184.897 12.612 185.189 12.8266 185.555 12.8266V13.3652C185.415 13.4265 185.25 13.5053 185.058 13.6017C184.866 13.698 184.657 13.8075 184.431 13.9301C183.298 14.5607 182.684 14.8761 182.588 14.8761C182.318 14.8761 182.026 14.4337 181.713 13.5491C181.399 12.6733 181.12 12.2354 180.876 12.2354C180.554 12.2354 180.393 12.5069 180.393 13.0499V16.3606C180.393 17.0788 180.554 17.4379 180.876 17.4379C180.955 17.4379 181.508 17.2014 182.536 16.7285C183.581 16.2643 184.204 16.0322 184.405 16.0322C184.84 16.0322 185.219 16.3781 185.542 17.0701C185.873 17.7795 186.038 18.6641 186.038 19.7239V22.7587C186.038 22.8989 185.833 23.0916 185.424 23.3368C185.023 23.5733 184.514 23.8317 183.895 24.1119C183.285 24.3922 182.662 24.6593 182.026 24.9133C181.39 25.1586 180.833 25.36 180.354 25.5177C179.874 25.6841 179.574 25.7673 179.452 25.7673C179.33 25.7673 179.212 25.6534 179.099 25.4257C178.96 25.1542 178.794 24.8039 178.602 24.3747C178.411 23.9455 178.215 23.5602 178.014 23.2186C177.779 22.7894 177.483 22.5748 177.126 22.5748V22.0362C177.274 21.9661 177.439 21.8873 177.622 21.7997C177.814 21.7033 178.032 21.5939 178.276 21.4712C179.4 20.8406 180.005 20.5253 180.092 20.5253C180.362 20.5253 180.698 21.0552 181.098 22.115C181.499 23.1748 181.826 23.7047 182.079 23.7047C182.253 23.7047 182.418 23.6346 182.575 23.4945C182.741 23.3456 182.823 23.1441 182.823 22.8901V19.5268C182.823 18.7211 182.601 18.3182 182.157 18.3182C182 18.3182 181.438 18.5327 180.471 18.9619C179.504 19.3911 178.951 19.6057 178.812 19.6057Z" stroke="#353535" stroke-width="8" mask="url(#path-2-outside-1_526_531)"/>
</svg>
