<svg width="188" height="35" viewBox="0 0 188 35" fill="none" xmlns="http://www.w3.org/2000/svg">
<path d="M14.5519 2.55422C14.4503 2.55681 14.3507 2.56178 14.2541 2.5687C12.669 2.68371 10.6842 3.47838 7.65073 5.00675L4.26431 24.13C10.9566 21.8889 15.6021 21.7619 18.8439 23.6312V4.03935C17.3026 3.08677 16.1333 2.59107 14.8614 2.55454C14.7583 2.55186 14.655 2.55169 14.5519 2.55422ZM25.0128 3.78859C24.7642 3.78578 24.5174 3.78978 24.2869 3.79918C23.1946 3.84426 21.9303 4.0386 20.3783 4.28796V23.4342C24.0929 22.5885 29.4889 22.9803 34.9795 24.252L31.5877 5.09906C28.5263 4.19436 26.7626 3.81161 25.0128 3.78859ZM25.208 5.62069C26.8186 5.64274 28.3502 5.91988 29.7874 6.1633L30.1657 7.94925C28.1381 7.54391 24.541 7.41896 22.2814 7.84332L22.2272 5.9188C23.2469 5.68598 24.2416 5.6075 25.208 5.62069ZM3.85035 6.12417L2.94508 11.0967H4.99948L5.87993 6.12417H3.85035ZM33.3422 6.12417L36.7308 25.2592L36.9217 26.3372L38.848 26.3208L35.3644 6.12417H33.3422ZM26.6184 12.3739C28.0673 12.3767 29.4893 12.4594 30.8088 12.6141L31.1093 14.4705C28.3258 14.1375 24.9207 14.1582 22.3274 14.4705L22.2669 12.6141C23.6937 12.4484 25.1694 12.3712 26.6184 12.3739ZM2.59106 13.0418L2.00068 16.2849H4.08065L4.65492 13.0418H2.59106ZM25.9895 15.9866C26.3865 15.9889 26.7985 15.9958 27.2443 16.0086L27.4622 17.8999C25.7594 17.849 23.4449 17.9604 22.3694 18.0134L22.3097 16.0694C23.7424 16.0161 24.7985 15.9799 25.9895 15.9866ZM29.526 16.0349C30.231 16.0395 30.9497 16.071 31.5827 16.0424L31.8027 17.9599C31.0649 17.9262 29.6821 17.8702 29.0687 17.9056L28.8294 16.0428C29.0616 16.0355 29.2938 16.0329 29.526 16.0349ZM1.64665 18.2301L0.113148 26.6532L2.24778 26.6349L3.73609 18.2301H1.64665ZM27.4962 19.5107C29.1681 19.5097 30.7926 19.5944 32.3094 19.7887L32.5648 22.0356C29.6398 21.5768 25.2528 21.2036 22.4097 21.6849L22.3977 19.7478C24.1047 19.5987 25.8242 19.5118 27.4962 19.5107ZM13.2904 24.272C10.7229 24.2818 7.49947 24.9476 3.45003 26.4079L2.83441 26.6298L18.8438 26.4925V25.8065C17.4595 24.8114 15.6531 24.2632 13.2904 24.272ZM24.751 24.9394C23.0772 24.9466 21.5866 25.0949 20.3783 25.3914V26.4792L35.521 26.3492C31.7418 25.4159 27.9205 24.9257 24.751 24.9394ZM0 28.6068V30.5524H39.2223V28.6068H0Z" fill="#394D59"/>
<mask id="path-2-outside-1_229_536" maskUnits="userSpaceOnUse" x="25.6926" y="0.447578" width="162" height="35" fill="black">
<rect fill="white" x="25.6926" y="0.447578" width="162" height="35"/>
<path d="M33.3909 7.60065C33.2166 7.60065 33.0555 7.68824 32.9074 7.86341V18.978C32.9074 19.7312 32.9509 20.3356 33.0381 20.791C33.1252 21.2465 33.3212 21.7019 33.6261 22.1574C34.2185 23.0157 35.5645 23.4449 37.6641 23.4449V24.22C37.5857 24.22 36.928 24.4652 35.6909 24.9557C34.4538 25.4549 33.7045 25.7046 33.4432 25.7046C32.9988 25.7046 32.5545 25.5644 32.1102 25.2842C31.6659 25.0039 31.2608 24.6316 30.8949 24.1674C30.529 23.6945 30.2371 23.1733 30.0193 22.604C29.8015 22.0347 29.6926 21.4611 29.6926 20.883V7.45614C29.6926 7.40359 29.893 7.28973 30.2938 7.11456C30.7032 6.93063 31.2129 6.72042 31.8227 6.48394C32.4413 6.24746 33.0685 6.01536 33.7045 5.78764C34.3405 5.55116 34.8981 5.35847 35.3772 5.20957C35.8564 5.06068 36.157 4.98623 36.2789 4.98623C36.3573 4.98623 36.4445 5.13074 36.5403 5.41978C36.6448 5.70881 36.7494 6.06353 36.8539 6.48394C36.9585 6.89559 37.0587 7.28535 37.1545 7.65321C37.3374 8.38892 37.5291 8.93195 37.7295 9.2823C37.9386 9.63264 38.3306 9.80781 38.9056 9.80781V10.3465C38.5049 10.5129 37.8384 10.8282 36.9062 11.2924C35.9566 11.7566 35.4513 11.9887 35.3903 11.9887C35.1289 11.9887 34.7935 11.2573 34.3841 9.79467C33.9659 8.33199 33.6348 7.60065 33.3909 7.60065Z"/>
<path d="M39.7904 21.7764V12.8426C39.7904 12.7901 39.9908 12.6762 40.3915 12.5011C40.801 12.3171 41.3106 12.1069 41.9205 11.8704C42.5303 11.634 43.1489 11.4019 43.7761 11.1741C44.4121 10.9377 44.9697 10.745 45.4489 10.5961C45.928 10.4472 46.2286 10.3727 46.3505 10.3727C46.5074 10.3727 46.7121 10.4778 46.9647 10.688C47.2174 10.8895 47.47 11.1522 47.7227 11.4763C47.9841 11.8004 48.2019 12.142 48.3761 12.5011C48.5591 12.8514 48.6505 13.1711 48.6505 13.4601V23.2084C48.6505 23.2609 48.4545 23.3792 48.0625 23.5631C47.6791 23.747 47.1956 23.9616 46.6119 24.2069C46.0282 24.4433 45.4227 24.6754 44.7954 24.9032C44.1769 25.1309 43.6193 25.3236 43.1227 25.4812C42.6349 25.6301 42.3038 25.7046 42.1296 25.7046C41.8421 25.7046 41.5154 25.5294 41.1495 25.1791C40.7836 24.82 40.4656 24.3426 40.1955 23.747C39.9254 23.1515 39.7904 22.4946 39.7904 21.7764ZM44.3642 23.2347C44.7127 23.2347 45.0612 23.0901 45.4096 22.8011V14.8659C45.4096 13.5346 44.9566 12.8689 44.0506 12.8689C43.6847 12.8689 43.3362 13.0047 43.0051 13.2762V21.2377C43.0051 22.569 43.4581 23.2347 44.3642 23.2347Z"/>
<path d="M50.5938 23.8784V14.7476C50.5938 14.1608 50.4675 13.6528 50.2148 13.2236C49.9709 12.7945 49.6616 12.5799 49.287 12.5799V11.9887C49.409 11.9624 50.3804 11.415 52.2012 10.3465C52.2709 10.364 52.3449 10.3859 52.4233 10.4121C52.5017 10.4297 52.5845 10.4559 52.6716 10.491C52.8459 10.5523 53.0767 10.7275 53.3642 11.0165C53.6604 11.3055 53.8085 11.6383 53.8085 12.015C53.9392 11.9361 54.2441 11.7653 54.7233 11.5026C56.0475 10.7494 56.8621 10.3727 57.167 10.3727C57.4807 10.3727 57.8292 10.5348 58.2125 10.8588C58.5958 11.1741 58.8877 11.5595 59.088 12.015C59.1055 12.0062 59.2057 11.9537 59.3886 11.8573C59.5716 11.761 59.8373 11.6252 60.1858 11.45C61.5623 10.7318 62.3986 10.3727 62.6948 10.3727C63.0782 10.3727 63.4484 10.5523 63.8056 10.9114C64.1715 11.2705 64.4677 11.6997 64.6942 12.1989C64.9295 12.6894 65.0471 13.1448 65.0471 13.5652V21.7238C65.0471 22.7135 65.487 23.296 66.367 23.4711V24.0623L63.4397 25.7046C63.0477 25.5469 62.6818 25.2842 62.342 24.9163C62.0109 24.5484 61.8454 24.2025 61.8454 23.8784V15.9432C61.8454 14.7695 61.6929 13.99 61.388 13.6046C61.0831 13.2193 60.6911 13.0266 60.2119 13.0266L59.4278 13.1974V21.7238C59.4278 22.7135 59.8678 23.296 60.7477 23.4711V24.0623L57.8204 25.7046C57.4284 25.5469 57.0625 25.2842 56.7227 24.9163C56.383 24.5484 56.2131 24.2025 56.2131 23.8784V16.0745C56.2131 14.0075 55.7252 12.974 54.7494 12.974L53.8085 13.1448V21.7238C53.8085 22.8099 54.1745 23.4273 54.9063 23.5762V24.1674L52.2012 25.7046C51.8091 25.5469 51.4432 25.2842 51.1035 24.9163C50.7637 24.5484 50.5938 24.2025 50.5938 23.8784Z"/>
<path d="M66.9904 23.8784V14.7476C66.9904 14.1608 66.864 13.6528 66.6114 13.2236C66.3674 12.7945 66.0582 12.5799 65.6836 12.5799V11.9887C65.8055 11.9624 66.7769 11.415 68.5977 10.3465C68.6674 10.364 68.7415 10.3859 68.8199 10.4121C68.8983 10.4297 68.9811 10.4559 69.0682 10.491C69.2424 10.5523 69.4733 10.7275 69.7608 11.0165C70.057 11.3055 70.2051 11.6383 70.2051 12.015C70.3358 11.9361 70.6407 11.7653 71.1199 11.5026C72.4441 10.7494 73.2587 10.3727 73.5636 10.3727C73.8772 10.3727 74.2257 10.5348 74.609 10.8588C74.9924 11.1741 75.2842 11.5595 75.4846 12.015C75.502 12.0062 75.6022 11.9537 75.7852 11.8573C75.9681 11.761 76.2338 11.6252 76.5823 11.45C77.9588 10.7318 78.7952 10.3727 79.0914 10.3727C79.4747 10.3727 79.845 10.5523 80.2022 10.9114C80.5681 11.2705 80.8643 11.6997 81.0908 12.1989C81.326 12.6894 81.4436 13.1448 81.4436 13.5652V21.7238C81.4436 22.7135 81.8836 23.296 82.7635 23.4711V24.0623L79.8363 25.7046C79.4442 25.5469 79.0783 25.2842 78.7386 24.9163C78.4075 24.5484 78.242 24.2025 78.242 23.8784V15.9432C78.242 14.7695 78.0895 13.99 77.7846 13.6046C77.4797 13.2193 77.0876 13.0266 76.6085 13.0266L75.8244 13.1974V21.7238C75.8244 22.7135 76.2643 23.296 77.1442 23.4711V24.0623L74.217 25.7046C73.825 25.5469 73.4591 25.2842 73.1193 24.9163C72.7795 24.5484 72.6096 24.2025 72.6096 23.8784V16.0745C72.6096 14.0075 72.1218 12.974 71.146 12.974L70.2051 13.1448V21.7238C70.2051 22.8099 70.571 23.4273 71.3028 23.5762V24.1674L68.5977 25.7046C68.2057 25.5469 67.8398 25.2842 67.5 24.9163C67.1602 24.5484 66.9904 24.2025 66.9904 23.8784Z"/>
<path d="M86.6017 21.5136C86.6017 21.969 86.7411 22.3457 87.0198 22.6435C87.5687 23.2215 88.2308 23.239 89.0062 22.696V14.3272C89.0062 13.2236 88.6403 12.6018 87.9085 12.4616V11.8704L90.6136 10.3465C91.0056 10.5041 91.3715 10.7669 91.7113 11.1347C92.051 11.5026 92.2209 11.8485 92.2209 12.1726V21.2903C92.2209 21.8858 92.3473 22.3982 92.5999 22.8274C92.8526 23.2566 93.1662 23.4711 93.5408 23.4711V24.0623C93.4101 24.0711 92.4344 24.6185 90.6136 25.7046C90.2041 25.5294 89.8338 25.2666 89.5028 24.9163C89.1717 24.566 89.0062 24.2288 89.0062 23.9047L85.6608 25.7046C85.6346 25.687 85.5998 25.6695 85.5562 25.652C85.5214 25.6257 85.4778 25.5951 85.4255 25.5601C85.321 25.4987 85.138 25.363 84.8767 25.1528C84.6153 24.9426 84.3888 24.7236 84.1971 24.4959C83.657 23.9003 83.3869 23.2259 83.3869 22.4727V14.3272C83.3869 13.3287 82.9513 12.7463 82.0801 12.5799V11.9887L84.9943 10.3465C85.3863 10.5041 85.7522 10.7669 86.092 11.1347C86.4318 11.5026 86.6017 11.8485 86.6017 12.1726V21.5136Z"/>
<path d="M94.1642 23.8784V14.7476C94.1642 14.1608 94.0379 13.6528 93.7852 13.2236C93.5413 12.7945 93.232 12.5799 92.8574 12.5799V11.9887C92.9794 11.9624 93.9508 11.415 95.7716 10.3465C95.8413 10.364 95.9153 10.3859 95.9937 10.4121C96.0721 10.4297 96.1549 10.4559 96.242 10.491C96.4163 10.5523 96.6471 10.7275 96.9346 11.0165C97.2308 11.3055 97.379 11.6383 97.379 12.015C97.5096 11.9361 97.8146 11.7653 98.2937 11.5026C99.6179 10.7494 100.402 10.3727 100.646 10.3727C101.029 10.3727 101.4 10.5523 101.757 10.9114C102.123 11.2705 102.419 11.6997 102.645 12.1989C102.881 12.6894 102.998 13.1448 102.998 13.5652V21.7238C102.998 22.7135 103.438 23.296 104.318 23.4711V24.0623L101.391 25.7046C100.999 25.5469 100.633 25.2842 100.293 24.9163C99.9534 24.5484 99.7835 24.2025 99.7835 23.8784V16.0745C99.7835 15.0673 99.6702 14.3009 99.4437 13.7754C99.2259 13.2412 98.8339 12.974 98.2676 12.974L97.379 13.1448V21.7238C97.379 22.8099 97.7449 23.4273 98.4767 23.5762V24.1674L95.7716 25.7046C95.3795 25.5469 95.0136 25.2842 94.6739 24.9163C94.3341 24.5484 94.1642 24.2025 94.1642 23.8784Z"/>
<path d="M104.536 7.00945V5.36723C104.536 5.34095 104.645 5.27964 104.863 5.1833C105.09 5.08695 105.351 4.98185 105.647 4.86799C105.952 4.75413 106.227 4.65778 106.47 4.57896C106.723 4.49137 106.88 4.44758 106.941 4.44758C107.063 4.44758 107.233 4.60085 107.451 4.9074C107.668 5.21395 107.777 5.52926 107.777 5.85332V7.81086C107.777 7.83714 107.668 7.89845 107.451 7.99479C107.241 8.09113 106.993 8.19624 106.706 8.3101C106.418 8.42396 106.148 8.52468 105.895 8.61227C105.643 8.69109 105.477 8.73051 105.399 8.73051C105.19 8.73051 104.994 8.55096 104.811 8.19186C104.628 7.83276 104.536 7.43862 104.536 7.00945ZM108.156 12.1989V21.7238C108.156 22.8099 108.522 23.4273 109.254 23.5762V24.1674L106.549 25.7046C106.157 25.5469 105.791 25.2842 105.451 24.9163C105.111 24.5484 104.941 24.2025 104.941 23.8784V14.3535C104.941 13.2499 104.576 12.6281 103.844 12.4879V11.8967L106.549 10.3727C106.941 10.5304 107.307 10.7931 107.647 11.161C107.986 11.5289 108.156 11.8748 108.156 12.1989Z"/>
<path d="M112.556 7.57438H113.314V10.7669H114.673L114.412 12.0938H113.314V21.7238C113.314 22.8099 113.68 23.4273 114.412 23.5762V24.1674L111.707 25.7046C111.315 25.5469 110.949 25.2842 110.609 24.9163C110.269 24.5484 110.1 24.2025 110.1 23.8784V12.1201H109.002L109.263 10.9902C109.629 10.9902 110.052 10.8194 110.531 10.4778C111.01 10.1363 111.446 9.70271 111.838 9.17719C112.23 8.65168 112.469 8.11741 112.556 7.57438Z"/>
<path d="M124.118 12.1726V22.8537C124.118 23.5281 123.817 24.5046 123.216 25.7834C122.981 26.2739 122.706 26.795 122.393 27.3468C122.079 27.8986 121.761 28.4153 121.439 28.8971C121.116 29.3875 120.816 29.786 120.537 30.0926C120.267 30.3991 120.054 30.5524 119.897 30.5524C119.6 30.5524 119.226 30.4867 118.773 30.3554C118.329 30.2327 117.871 30.0751 117.401 29.8824C116.939 29.6897 116.529 29.5058 116.172 29.3306L115.401 28.9365V28.1219H116.303C116.773 28.1219 117.292 27.9424 117.858 27.5833C118.424 27.2242 118.978 26.7118 119.518 26.0462C120.058 25.3893 120.52 24.6185 120.903 23.7339C118.899 24.6886 117.74 25.1659 117.427 25.1659C117.061 25.1659 116.712 24.9995 116.381 24.6667C116.059 24.3339 115.793 23.9047 115.584 23.3792C115.384 22.8537 115.284 22.3019 115.284 21.7238V14.3272C115.284 13.3287 114.848 12.7463 113.977 12.5799V11.9887L116.891 10.3465C117.283 10.5041 117.649 10.7669 117.989 11.1347C118.329 11.5026 118.498 11.8485 118.498 12.1726V19.4641C118.498 20.7166 118.694 21.553 119.086 21.9734C119.479 22.3938 120.084 22.604 120.903 22.604V14.3272C120.903 13.2236 120.537 12.6018 119.805 12.4616V11.8704L122.51 10.3465C122.902 10.5041 123.268 10.7669 123.608 11.1347C123.948 11.5026 124.118 11.8485 124.118 12.1726Z"/>
<path d="M133.924 17.1256C133.471 17.1256 133.083 16.784 132.761 16.1008C132.447 15.4177 132.291 14.5812 132.291 13.5915V7.99479C132.291 7.86341 132.474 7.6751 132.839 7.42986C133.214 7.18462 133.68 6.92625 134.238 6.65473C134.804 6.37446 135.379 6.10732 135.963 5.85332C136.546 5.59933 137.056 5.3935 137.492 5.23585C137.936 5.06944 138.215 4.98623 138.328 4.98623C138.546 4.98623 138.851 5.34533 139.243 6.06353C139.286 6.15112 139.339 6.25622 139.4 6.37884C139.469 6.50146 139.548 6.63721 139.635 6.78611C139.722 6.93501 139.796 7.07514 139.857 7.20652C139.927 7.3379 139.988 7.45176 140.04 7.5481C140.275 7.97727 140.571 8.19186 140.929 8.19186V8.73051C140.789 8.79182 140.624 8.87064 140.432 8.96699C140.24 9.06333 140.023 9.17281 139.779 9.29543C138.646 9.91729 138.041 10.2282 137.962 10.2282C137.692 10.2282 137.357 9.69833 136.956 8.63854C136.555 7.58752 136.228 7.062 135.976 7.062C135.653 7.062 135.492 7.32914 135.492 7.86341V13.8674C135.492 14.5856 135.653 14.9447 135.976 14.9447C136.054 14.9447 136.607 14.7082 137.635 14.2353C138.681 13.771 139.308 13.5389 139.517 13.5389C139.953 13.5389 140.332 13.8849 140.654 14.5768C140.976 15.26 141.138 16.1446 141.138 17.2307V22.9588C141.138 23.0989 140.933 23.2916 140.523 23.5368C140.123 23.7733 139.613 24.0317 138.994 24.312C138.385 24.5922 137.762 24.8594 137.126 25.1134C136.49 25.3586 135.932 25.5601 135.453 25.7177C134.983 25.8841 134.686 25.9673 134.564 25.9673C134.373 25.9673 134.185 25.8447 134.002 25.5995C133.82 25.3455 133.641 25.0345 133.467 24.6667C133.301 24.2901 133.136 23.9178 132.97 23.55C132.805 23.1733 132.639 22.8624 132.474 22.6172C132.308 22.3632 132.138 22.2362 131.964 22.2362V21.6975C132.112 21.6362 132.277 21.5574 132.46 21.4611C132.652 21.3647 132.861 21.2552 133.088 21.1326C134.229 20.502 134.843 20.1867 134.93 20.1867C135.2 20.1867 135.584 20.8042 136.08 22.0391C136.559 23.2828 136.925 23.9047 137.178 23.9047C137.361 23.9047 137.531 23.8346 137.688 23.6945C137.853 23.5456 137.936 23.3441 137.936 23.0901V17.0467C137.936 16.2322 137.714 15.8249 137.27 15.8249C137.113 15.8249 136.551 16.0395 135.584 16.4687C134.591 16.9066 134.037 17.1256 133.924 17.1256Z"/>
<path d="M142.937 28.6606V14.5111C142.937 14.0995 142.824 13.6966 142.597 13.3025C142.38 12.9083 142.066 12.685 141.657 12.6324V12.0412C141.778 12.0237 142.75 11.4763 144.571 10.399C144.98 10.5742 145.35 10.8369 145.681 11.1873C146.013 11.5376 146.178 11.8661 146.178 12.1726C148.086 10.9902 149.201 10.399 149.523 10.399C149.645 10.399 149.881 10.5348 150.229 10.8063C150.578 11.0778 150.926 11.4807 151.275 12.015C151.623 12.5492 151.797 13.0923 151.797 13.6441V23.2347C151.797 23.2872 151.645 23.3879 151.34 23.5368C151.035 23.6857 150.643 23.8609 150.164 24.0623C149.685 24.255 149.184 24.4521 148.661 24.6535C148.138 24.8462 147.65 25.0214 147.197 25.1791C146.744 25.3367 146.396 25.4506 146.152 25.5206V26.506C146.152 27.6008 146.518 28.2226 147.25 28.3715V28.9627L144.545 30.4999C144.153 30.3335 143.787 30.0663 143.447 29.6985C143.107 29.3306 142.937 28.9846 142.937 28.6606ZM147.223 12.8689C146.884 12.8689 146.535 13.0134 146.178 13.3025V23.9835C146.492 23.9835 146.836 23.9134 147.21 23.7733C147.585 23.6244 147.907 23.4405 148.177 23.2215C148.448 23.0026 148.583 22.7792 148.583 22.5515V14.8659C148.583 13.5346 148.13 12.8689 147.223 12.8689Z"/>
<path d="M160.275 10.3727C160.37 10.3727 160.593 10.5085 160.941 10.78C161.298 11.0515 161.655 11.4369 162.013 11.9361C162.37 12.4354 162.548 12.9171 162.548 13.3813V17.9007C162.548 18.2248 162.078 18.6189 161.137 19.0831C160.658 19.3196 160.113 19.5604 159.504 19.8057C158.894 20.0509 158.345 20.2568 157.857 20.4232C157.369 20.5896 157.069 20.6728 156.955 20.6728C156.955 22.0479 157.552 22.9018 158.746 23.2347C159.312 23.3748 160.018 23.4449 160.863 23.4449V24.22C157.927 25.2097 156.363 25.7046 156.171 25.7046C155.823 25.7046 155.457 25.5294 155.074 25.1791C154.69 24.82 154.368 24.3514 154.106 23.7733C153.845 23.1952 153.714 22.5646 153.714 21.8815V12.8426C153.714 12.7901 153.915 12.6762 154.316 12.5011C154.725 12.3171 155.235 12.1069 155.845 11.8704C156.454 11.634 157.073 11.4019 157.7 11.1741C158.336 10.9377 158.894 10.745 159.373 10.5961C159.852 10.4472 160.153 10.3727 160.275 10.3727ZM159.334 14.6425C159.334 14.152 159.22 13.7273 158.994 13.3682C158.759 13.0178 158.458 12.8426 158.092 12.8426C157.735 12.8426 157.347 12.9784 156.929 13.2499V19.4641C158.532 19.0174 159.334 18.0496 159.334 16.5606V14.6425Z"/>
<path d="M167.576 6.83866V21.7238C167.576 22.8099 167.942 23.4273 168.674 23.5762V24.1674L165.968 25.7046C165.576 25.5469 165.21 25.2842 164.871 24.9163C164.531 24.5484 164.361 24.2025 164.361 23.8784V8.99326C164.361 7.89845 163.995 7.28097 163.263 7.14083V6.54963L165.968 5.0125C166.36 5.17892 166.726 5.44605 167.066 5.81391C167.406 6.17301 167.576 6.5146 167.576 6.83866Z"/>
<path d="M172.734 6.83866V21.7238C172.734 22.8099 173.1 23.4273 173.832 23.5762V24.1674L171.126 25.7046C170.734 25.5469 170.369 25.2842 170.029 24.9163C169.689 24.5484 169.519 24.2025 169.519 23.8784V8.99326C169.519 7.89845 169.153 7.28097 168.421 7.14083V6.54963L171.126 5.0125C171.518 5.17892 171.884 5.44605 172.224 5.81391C172.564 6.17301 172.734 6.5146 172.734 6.83866Z"/>
<path d="M175.906 19.8057C175.461 19.8057 175.078 19.4685 174.756 18.7941C174.433 18.1109 174.272 17.2745 174.272 16.2848V13.3813C174.272 13.2412 174.455 13.0528 174.821 12.8164C175.195 12.5711 175.662 12.3084 176.219 12.0281C176.785 11.7478 177.36 11.4851 177.944 11.2398C178.528 10.9858 179.042 10.78 179.486 10.6224C179.93 10.4559 180.209 10.3727 180.323 10.3727C180.479 10.3727 180.619 10.4691 180.741 10.6618C180.871 10.8457 180.972 10.9946 181.041 11.1085C181.137 11.2661 181.25 11.4676 181.381 11.7128C181.512 11.958 181.642 12.1814 181.773 12.3828C181.991 12.812 182.283 13.0266 182.649 13.0266V13.5652C182.509 13.6265 182.344 13.7054 182.152 13.8017C181.96 13.898 181.751 14.0075 181.525 14.1301C180.392 14.7608 179.778 15.0761 179.682 15.0761C179.412 15.0761 179.12 14.6338 178.807 13.7492C178.493 12.8733 178.214 12.4354 177.97 12.4354C177.648 12.4354 177.487 12.7069 177.487 13.2499V16.5606C177.487 17.2788 177.648 17.6379 177.97 17.6379C178.049 17.6379 178.602 17.4015 179.63 16.9285C180.675 16.4643 181.298 16.2322 181.499 16.2322C181.934 16.2322 182.313 16.5782 182.636 17.2701C182.967 17.9795 183.132 18.8641 183.132 19.9239V22.9588C183.132 23.0989 182.927 23.2916 182.518 23.5368C182.117 23.7733 181.608 24.0317 180.989 24.312C180.379 24.5922 179.756 24.8594 179.12 25.1134C178.484 25.3586 177.927 25.5601 177.448 25.7177C176.968 25.8841 176.668 25.9673 176.546 25.9673C176.424 25.9673 176.306 25.8535 176.193 25.6257C176.054 25.3542 175.888 25.0039 175.696 24.5747C175.505 24.1455 175.309 23.7602 175.108 23.4186C174.873 22.9894 174.577 22.7748 174.22 22.7748V22.2362C174.368 22.1661 174.533 22.0873 174.716 21.9997C174.908 21.9034 175.126 21.7939 175.37 21.6713C176.494 21.0406 177.099 20.7253 177.186 20.7253C177.456 20.7253 177.792 21.2552 178.192 22.315C178.593 23.3748 178.92 23.9047 179.173 23.9047C179.347 23.9047 179.512 23.8346 179.669 23.6945C179.835 23.5456 179.917 23.3441 179.917 23.0901V19.7269C179.917 18.9211 179.695 18.5182 179.251 18.5182C179.094 18.5182 178.532 18.7328 177.565 19.1619C176.598 19.5911 176.045 19.8057 175.906 19.8057Z"/>
</mask>
<path d="M33.3909 7.60065C33.2166 7.60065 33.0555 7.68824 32.9074 7.86341V18.978C32.9074 19.7312 32.9509 20.3356 33.0381 20.791C33.1252 21.2465 33.3212 21.7019 33.6261 22.1574C34.2185 23.0157 35.5645 23.4449 37.6641 23.4449V24.22C37.5857 24.22 36.928 24.4652 35.6909 24.9557C34.4538 25.4549 33.7045 25.7046 33.4432 25.7046C32.9988 25.7046 32.5545 25.5644 32.1102 25.2842C31.6659 25.0039 31.2608 24.6316 30.8949 24.1674C30.529 23.6945 30.2371 23.1733 30.0193 22.604C29.8015 22.0347 29.6926 21.4611 29.6926 20.883V7.45614C29.6926 7.40359 29.893 7.28973 30.2938 7.11456C30.7032 6.93063 31.2129 6.72042 31.8227 6.48394C32.4413 6.24746 33.0685 6.01536 33.7045 5.78764C34.3405 5.55116 34.8981 5.35847 35.3772 5.20957C35.8564 5.06068 36.157 4.98623 36.2789 4.98623C36.3573 4.98623 36.4445 5.13074 36.5403 5.41978C36.6448 5.70881 36.7494 6.06353 36.8539 6.48394C36.9585 6.89559 37.0587 7.28535 37.1545 7.65321C37.3374 8.38892 37.5291 8.93195 37.7295 9.2823C37.9386 9.63264 38.3306 9.80781 38.9056 9.80781V10.3465C38.5049 10.5129 37.8384 10.8282 36.9062 11.2924C35.9566 11.7566 35.4513 11.9887 35.3903 11.9887C35.1289 11.9887 34.7935 11.2573 34.3841 9.79467C33.9659 8.33199 33.6348 7.60065 33.3909 7.60065Z" fill="#394D59"/>
<path d="M39.7904 21.7764V12.8426C39.7904 12.7901 39.9908 12.6762 40.3915 12.5011C40.801 12.3171 41.3106 12.1069 41.9205 11.8704C42.5303 11.634 43.1489 11.4019 43.7761 11.1741C44.4121 10.9377 44.9697 10.745 45.4489 10.5961C45.928 10.4472 46.2286 10.3727 46.3505 10.3727C46.5074 10.3727 46.7121 10.4778 46.9647 10.688C47.2174 10.8895 47.47 11.1522 47.7227 11.4763C47.9841 11.8004 48.2019 12.142 48.3761 12.5011C48.5591 12.8514 48.6505 13.1711 48.6505 13.4601V23.2084C48.6505 23.2609 48.4545 23.3792 48.0625 23.5631C47.6791 23.747 47.1956 23.9616 46.6119 24.2069C46.0282 24.4433 45.4227 24.6754 44.7954 24.9032C44.1769 25.1309 43.6193 25.3236 43.1227 25.4812C42.6349 25.6301 42.3038 25.7046 42.1296 25.7046C41.8421 25.7046 41.5154 25.5294 41.1495 25.1791C40.7836 24.82 40.4656 24.3426 40.1955 23.747C39.9254 23.1515 39.7904 22.4946 39.7904 21.7764ZM44.3642 23.2347C44.7127 23.2347 45.0612 23.0901 45.4096 22.8011V14.8659C45.4096 13.5346 44.9566 12.8689 44.0506 12.8689C43.6847 12.8689 43.3362 13.0047 43.0051 13.2762V21.2377C43.0051 22.569 43.4581 23.2347 44.3642 23.2347Z" fill="#394D59"/>
<path d="M50.5938 23.8784V14.7476C50.5938 14.1608 50.4675 13.6528 50.2148 13.2236C49.9709 12.7945 49.6616 12.5799 49.287 12.5799V11.9887C49.409 11.9624 50.3804 11.415 52.2012 10.3465C52.2709 10.364 52.3449 10.3859 52.4233 10.4121C52.5017 10.4297 52.5845 10.4559 52.6716 10.491C52.8459 10.5523 53.0767 10.7275 53.3642 11.0165C53.6604 11.3055 53.8085 11.6383 53.8085 12.015C53.9392 11.9361 54.2441 11.7653 54.7233 11.5026C56.0475 10.7494 56.8621 10.3727 57.167 10.3727C57.4807 10.3727 57.8292 10.5348 58.2125 10.8588C58.5958 11.1741 58.8877 11.5595 59.088 12.015C59.1055 12.0062 59.2057 11.9537 59.3886 11.8573C59.5716 11.761 59.8373 11.6252 60.1858 11.45C61.5623 10.7318 62.3986 10.3727 62.6948 10.3727C63.0782 10.3727 63.4484 10.5523 63.8056 10.9114C64.1715 11.2705 64.4677 11.6997 64.6942 12.1989C64.9295 12.6894 65.0471 13.1448 65.0471 13.5652V21.7238C65.0471 22.7135 65.487 23.296 66.367 23.4711V24.0623L63.4397 25.7046C63.0477 25.5469 62.6818 25.2842 62.342 24.9163C62.0109 24.5484 61.8454 24.2025 61.8454 23.8784V15.9432C61.8454 14.7695 61.6929 13.99 61.388 13.6046C61.0831 13.2193 60.6911 13.0266 60.2119 13.0266L59.4278 13.1974V21.7238C59.4278 22.7135 59.8678 23.296 60.7477 23.4711V24.0623L57.8204 25.7046C57.4284 25.5469 57.0625 25.2842 56.7227 24.9163C56.383 24.5484 56.2131 24.2025 56.2131 23.8784V16.0745C56.2131 14.0075 55.7252 12.974 54.7494 12.974L53.8085 13.1448V21.7238C53.8085 22.8099 54.1745 23.4273 54.9063 23.5762V24.1674L52.2012 25.7046C51.8091 25.5469 51.4432 25.2842 51.1035 24.9163C50.7637 24.5484 50.5938 24.2025 50.5938 23.8784Z" fill="#394D59"/>
<path d="M66.9904 23.8784V14.7476C66.9904 14.1608 66.864 13.6528 66.6114 13.2236C66.3674 12.7945 66.0582 12.5799 65.6836 12.5799V11.9887C65.8055 11.9624 66.7769 11.415 68.5977 10.3465C68.6674 10.364 68.7415 10.3859 68.8199 10.4121C68.8983 10.4297 68.9811 10.4559 69.0682 10.491C69.2424 10.5523 69.4733 10.7275 69.7608 11.0165C70.057 11.3055 70.2051 11.6383 70.2051 12.015C70.3358 11.9361 70.6407 11.7653 71.1199 11.5026C72.4441 10.7494 73.2587 10.3727 73.5636 10.3727C73.8772 10.3727 74.2257 10.5348 74.609 10.8588C74.9924 11.1741 75.2842 11.5595 75.4846 12.015C75.502 12.0062 75.6022 11.9537 75.7852 11.8573C75.9681 11.761 76.2338 11.6252 76.5823 11.45C77.9588 10.7318 78.7952 10.3727 79.0914 10.3727C79.4747 10.3727 79.845 10.5523 80.2022 10.9114C80.5681 11.2705 80.8643 11.6997 81.0908 12.1989C81.326 12.6894 81.4436 13.1448 81.4436 13.5652V21.7238C81.4436 22.7135 81.8836 23.296 82.7635 23.4711V24.0623L79.8363 25.7046C79.4442 25.5469 79.0783 25.2842 78.7386 24.9163C78.4075 24.5484 78.242 24.2025 78.242 23.8784V15.9432C78.242 14.7695 78.0895 13.99 77.7846 13.6046C77.4797 13.2193 77.0876 13.0266 76.6085 13.0266L75.8244 13.1974V21.7238C75.8244 22.7135 76.2643 23.296 77.1442 23.4711V24.0623L74.217 25.7046C73.825 25.5469 73.4591 25.2842 73.1193 24.9163C72.7795 24.5484 72.6096 24.2025 72.6096 23.8784V16.0745C72.6096 14.0075 72.1218 12.974 71.146 12.974L70.2051 13.1448V21.7238C70.2051 22.8099 70.571 23.4273 71.3028 23.5762V24.1674L68.5977 25.7046C68.2057 25.5469 67.8398 25.2842 67.5 24.9163C67.1602 24.5484 66.9904 24.2025 66.9904 23.8784Z" fill="#394D59"/>
<path d="M86.6017 21.5136C86.6017 21.969 86.7411 22.3457 87.0198 22.6435C87.5687 23.2215 88.2308 23.239 89.0062 22.696V14.3272C89.0062 13.2236 88.6403 12.6018 87.9085 12.4616V11.8704L90.6136 10.3465C91.0056 10.5041 91.3715 10.7669 91.7113 11.1347C92.051 11.5026 92.2209 11.8485 92.2209 12.1726V21.2903C92.2209 21.8858 92.3473 22.3982 92.5999 22.8274C92.8526 23.2566 93.1662 23.4711 93.5408 23.4711V24.0623C93.4101 24.0711 92.4344 24.6185 90.6136 25.7046C90.2041 25.5294 89.8338 25.2666 89.5028 24.9163C89.1717 24.566 89.0062 24.2288 89.0062 23.9047L85.6608 25.7046C85.6346 25.687 85.5998 25.6695 85.5562 25.652C85.5214 25.6257 85.4778 25.5951 85.4255 25.5601C85.321 25.4987 85.138 25.363 84.8767 25.1528C84.6153 24.9426 84.3888 24.7236 84.1971 24.4959C83.657 23.9003 83.3869 23.2259 83.3869 22.4727V14.3272C83.3869 13.3287 82.9513 12.7463 82.0801 12.5799V11.9887L84.9943 10.3465C85.3863 10.5041 85.7522 10.7669 86.092 11.1347C86.4318 11.5026 86.6017 11.8485 86.6017 12.1726V21.5136Z" fill="#394D59"/>
<path d="M94.1642 23.8784V14.7476C94.1642 14.1608 94.0379 13.6528 93.7852 13.2236C93.5413 12.7945 93.232 12.5799 92.8574 12.5799V11.9887C92.9794 11.9624 93.9508 11.415 95.7716 10.3465C95.8413 10.364 95.9153 10.3859 95.9937 10.4121C96.0721 10.4297 96.1549 10.4559 96.242 10.491C96.4163 10.5523 96.6471 10.7275 96.9346 11.0165C97.2308 11.3055 97.379 11.6383 97.379 12.015C97.5096 11.9361 97.8146 11.7653 98.2937 11.5026C99.6179 10.7494 100.402 10.3727 100.646 10.3727C101.029 10.3727 101.4 10.5523 101.757 10.9114C102.123 11.2705 102.419 11.6997 102.645 12.1989C102.881 12.6894 102.998 13.1448 102.998 13.5652V21.7238C102.998 22.7135 103.438 23.296 104.318 23.4711V24.0623L101.391 25.7046C100.999 25.5469 100.633 25.2842 100.293 24.9163C99.9534 24.5484 99.7835 24.2025 99.7835 23.8784V16.0745C99.7835 15.0673 99.6702 14.3009 99.4437 13.7754C99.2259 13.2412 98.8339 12.974 98.2676 12.974L97.379 13.1448V21.7238C97.379 22.8099 97.7449 23.4273 98.4767 23.5762V24.1674L95.7716 25.7046C95.3795 25.5469 95.0136 25.2842 94.6739 24.9163C94.3341 24.5484 94.1642 24.2025 94.1642 23.8784Z" fill="#394D59"/>
<path d="M104.536 7.00945V5.36723C104.536 5.34095 104.645 5.27964 104.863 5.1833C105.09 5.08695 105.351 4.98185 105.647 4.86799C105.952 4.75413 106.227 4.65778 106.47 4.57896C106.723 4.49137 106.88 4.44758 106.941 4.44758C107.063 4.44758 107.233 4.60085 107.451 4.9074C107.668 5.21395 107.777 5.52926 107.777 5.85332V7.81086C107.777 7.83714 107.668 7.89845 107.451 7.99479C107.241 8.09113 106.993 8.19624 106.706 8.3101C106.418 8.42396 106.148 8.52468 105.895 8.61227C105.643 8.69109 105.477 8.73051 105.399 8.73051C105.19 8.73051 104.994 8.55096 104.811 8.19186C104.628 7.83276 104.536 7.43862 104.536 7.00945ZM108.156 12.1989V21.7238C108.156 22.8099 108.522 23.4273 109.254 23.5762V24.1674L106.549 25.7046C106.157 25.5469 105.791 25.2842 105.451 24.9163C105.111 24.5484 104.941 24.2025 104.941 23.8784V14.3535C104.941 13.2499 104.576 12.6281 103.844 12.4879V11.8967L106.549 10.3727C106.941 10.5304 107.307 10.7931 107.647 11.161C107.986 11.5289 108.156 11.8748 108.156 12.1989Z" fill="#394D59"/>
<path d="M112.556 7.57438H113.314V10.7669H114.673L114.412 12.0938H113.314V21.7238C113.314 22.8099 113.68 23.4273 114.412 23.5762V24.1674L111.707 25.7046C111.315 25.5469 110.949 25.2842 110.609 24.9163C110.269 24.5484 110.1 24.2025 110.1 23.8784V12.1201H109.002L109.263 10.9902C109.629 10.9902 110.052 10.8194 110.531 10.4778C111.01 10.1363 111.446 9.70271 111.838 9.17719C112.23 8.65168 112.469 8.11741 112.556 7.57438Z" fill="#394D59"/>
<path d="M124.118 12.1726V22.8537C124.118 23.5281 123.817 24.5046 123.216 25.7834C122.981 26.2739 122.706 26.795 122.393 27.3468C122.079 27.8986 121.761 28.4153 121.439 28.8971C121.116 29.3875 120.816 29.786 120.537 30.0926C120.267 30.3991 120.054 30.5524 119.897 30.5524C119.6 30.5524 119.226 30.4867 118.773 30.3554C118.329 30.2327 117.871 30.0751 117.401 29.8824C116.939 29.6897 116.529 29.5058 116.172 29.3306L115.401 28.9365V28.1219H116.303C116.773 28.1219 117.292 27.9424 117.858 27.5833C118.424 27.2242 118.978 26.7118 119.518 26.0462C120.058 25.3893 120.52 24.6185 120.903 23.7339C118.899 24.6886 117.74 25.1659 117.427 25.1659C117.061 25.1659 116.712 24.9995 116.381 24.6667C116.059 24.3339 115.793 23.9047 115.584 23.3792C115.384 22.8537 115.284 22.3019 115.284 21.7238V14.3272C115.284 13.3287 114.848 12.7463 113.977 12.5799V11.9887L116.891 10.3465C117.283 10.5041 117.649 10.7669 117.989 11.1347C118.329 11.5026 118.498 11.8485 118.498 12.1726V19.4641C118.498 20.7166 118.694 21.553 119.086 21.9734C119.479 22.3938 120.084 22.604 120.903 22.604V14.3272C120.903 13.2236 120.537 12.6018 119.805 12.4616V11.8704L122.51 10.3465C122.902 10.5041 123.268 10.7669 123.608 11.1347C123.948 11.5026 124.118 11.8485 124.118 12.1726Z" fill="#394D59"/>
<path d="M133.924 17.1256C133.471 17.1256 133.083 16.784 132.761 16.1008C132.447 15.4177 132.291 14.5812 132.291 13.5915V7.99479C132.291 7.86341 132.474 7.6751 132.839 7.42986C133.214 7.18462 133.68 6.92625 134.238 6.65473C134.804 6.37446 135.379 6.10732 135.963 5.85332C136.546 5.59933 137.056 5.3935 137.492 5.23585C137.936 5.06944 138.215 4.98623 138.328 4.98623C138.546 4.98623 138.851 5.34533 139.243 6.06353C139.286 6.15112 139.339 6.25622 139.4 6.37884C139.469 6.50146 139.548 6.63721 139.635 6.78611C139.722 6.93501 139.796 7.07514 139.857 7.20652C139.927 7.3379 139.988 7.45176 140.04 7.5481C140.275 7.97727 140.571 8.19186 140.929 8.19186V8.73051C140.789 8.79182 140.624 8.87064 140.432 8.96699C140.24 9.06333 140.023 9.17281 139.779 9.29543C138.646 9.91729 138.041 10.2282 137.962 10.2282C137.692 10.2282 137.357 9.69833 136.956 8.63854C136.555 7.58752 136.228 7.062 135.976 7.062C135.653 7.062 135.492 7.32914 135.492 7.86341V13.8674C135.492 14.5856 135.653 14.9447 135.976 14.9447C136.054 14.9447 136.607 14.7082 137.635 14.2353C138.681 13.771 139.308 13.5389 139.517 13.5389C139.953 13.5389 140.332 13.8849 140.654 14.5768C140.976 15.26 141.138 16.1446 141.138 17.2307V22.9588C141.138 23.0989 140.933 23.2916 140.523 23.5368C140.123 23.7733 139.613 24.0317 138.994 24.312C138.385 24.5922 137.762 24.8594 137.126 25.1134C136.49 25.3586 135.932 25.5601 135.453 25.7177C134.983 25.8841 134.686 25.9673 134.564 25.9673C134.373 25.9673 134.185 25.8447 134.002 25.5995C133.82 25.3455 133.641 25.0345 133.467 24.6667C133.301 24.2901 133.136 23.9178 132.97 23.55C132.805 23.1733 132.639 22.8624 132.474 22.6172C132.308 22.3632 132.138 22.2362 131.964 22.2362V21.6975C132.112 21.6362 132.277 21.5574 132.46 21.4611C132.652 21.3647 132.861 21.2552 133.088 21.1326C134.229 20.502 134.843 20.1867 134.93 20.1867C135.2 20.1867 135.584 20.8042 136.08 22.0391C136.559 23.2828 136.925 23.9047 137.178 23.9047C137.361 23.9047 137.531 23.8346 137.688 23.6945C137.853 23.5456 137.936 23.3441 137.936 23.0901V17.0467C137.936 16.2322 137.714 15.8249 137.27 15.8249C137.113 15.8249 136.551 16.0395 135.584 16.4687C134.591 16.9066 134.037 17.1256 133.924 17.1256Z" fill="#394D59"/>
<path d="M142.937 28.6606V14.5111C142.937 14.0995 142.824 13.6966 142.597 13.3025C142.38 12.9083 142.066 12.685 141.657 12.6324V12.0412C141.778 12.0237 142.75 11.4763 144.571 10.399C144.98 10.5742 145.35 10.8369 145.681 11.1873C146.013 11.5376 146.178 11.8661 146.178 12.1726C148.086 10.9902 149.201 10.399 149.523 10.399C149.645 10.399 149.881 10.5348 150.229 10.8063C150.578 11.0778 150.926 11.4807 151.275 12.015C151.623 12.5492 151.797 13.0923 151.797 13.6441V23.2347C151.797 23.2872 151.645 23.3879 151.34 23.5368C151.035 23.6857 150.643 23.8609 150.164 24.0623C149.685 24.255 149.184 24.4521 148.661 24.6535C148.138 24.8462 147.65 25.0214 147.197 25.1791C146.744 25.3367 146.396 25.4506 146.152 25.5206V26.506C146.152 27.6008 146.518 28.2226 147.25 28.3715V28.9627L144.545 30.4999C144.153 30.3335 143.787 30.0663 143.447 29.6985C143.107 29.3306 142.937 28.9846 142.937 28.6606ZM147.223 12.8689C146.884 12.8689 146.535 13.0134 146.178 13.3025V23.9835C146.492 23.9835 146.836 23.9134 147.21 23.7733C147.585 23.6244 147.907 23.4405 148.177 23.2215C148.448 23.0026 148.583 22.7792 148.583 22.5515V14.8659C148.583 13.5346 148.13 12.8689 147.223 12.8689Z" fill="#394D59"/>
<path d="M160.275 10.3727C160.37 10.3727 160.593 10.5085 160.941 10.78C161.298 11.0515 161.655 11.4369 162.013 11.9361C162.37 12.4354 162.548 12.9171 162.548 13.3813V17.9007C162.548 18.2248 162.078 18.6189 161.137 19.0831C160.658 19.3196 160.113 19.5604 159.504 19.8057C158.894 20.0509 158.345 20.2568 157.857 20.4232C157.369 20.5896 157.069 20.6728 156.955 20.6728C156.955 22.0479 157.552 22.9018 158.746 23.2347C159.312 23.3748 160.018 23.4449 160.863 23.4449V24.22C157.927 25.2097 156.363 25.7046 156.171 25.7046C155.823 25.7046 155.457 25.5294 155.074 25.1791C154.69 24.82 154.368 24.3514 154.106 23.7733C153.845 23.1952 153.714 22.5646 153.714 21.8815V12.8426C153.714 12.7901 153.915 12.6762 154.316 12.5011C154.725 12.3171 155.235 12.1069 155.845 11.8704C156.454 11.634 157.073 11.4019 157.7 11.1741C158.336 10.9377 158.894 10.745 159.373 10.5961C159.852 10.4472 160.153 10.3727 160.275 10.3727ZM159.334 14.6425C159.334 14.152 159.22 13.7273 158.994 13.3682C158.759 13.0178 158.458 12.8426 158.092 12.8426C157.735 12.8426 157.347 12.9784 156.929 13.2499V19.4641C158.532 19.0174 159.334 18.0496 159.334 16.5606V14.6425Z" fill="#394D59"/>
<path d="M167.576 6.83866V21.7238C167.576 22.8099 167.942 23.4273 168.674 23.5762V24.1674L165.968 25.7046C165.576 25.5469 165.21 25.2842 164.871 24.9163C164.531 24.5484 164.361 24.2025 164.361 23.8784V8.99326C164.361 7.89845 163.995 7.28097 163.263 7.14083V6.54963L165.968 5.0125C166.36 5.17892 166.726 5.44605 167.066 5.81391C167.406 6.17301 167.576 6.5146 167.576 6.83866Z" fill="#394D59"/>
<path d="M172.734 6.83866V21.7238C172.734 22.8099 173.1 23.4273 173.832 23.5762V24.1674L171.126 25.7046C170.734 25.5469 170.369 25.2842 170.029 24.9163C169.689 24.5484 169.519 24.2025 169.519 23.8784V8.99326C169.519 7.89845 169.153 7.28097 168.421 7.14083V6.54963L171.126 5.0125C171.518 5.17892 171.884 5.44605 172.224 5.81391C172.564 6.17301 172.734 6.5146 172.734 6.83866Z" fill="#394D59"/>
<path d="M175.906 19.8057C175.461 19.8057 175.078 19.4685 174.756 18.7941C174.433 18.1109 174.272 17.2745 174.272 16.2848V13.3813C174.272 13.2412 174.455 13.0528 174.821 12.8164C175.195 12.5711 175.662 12.3084 176.219 12.0281C176.785 11.7478 177.36 11.4851 177.944 11.2398C178.528 10.9858 179.042 10.78 179.486 10.6224C179.93 10.4559 180.209 10.3727 180.323 10.3727C180.479 10.3727 180.619 10.4691 180.741 10.6618C180.871 10.8457 180.972 10.9946 181.041 11.1085C181.137 11.2661 181.25 11.4676 181.381 11.7128C181.512 11.958 181.642 12.1814 181.773 12.3828C181.991 12.812 182.283 13.0266 182.649 13.0266V13.5652C182.509 13.6265 182.344 13.7054 182.152 13.8017C181.96 13.898 181.751 14.0075 181.525 14.1301C180.392 14.7608 179.778 15.0761 179.682 15.0761C179.412 15.0761 179.12 14.6338 178.807 13.7492C178.493 12.8733 178.214 12.4354 177.97 12.4354C177.648 12.4354 177.487 12.7069 177.487 13.2499V16.5606C177.487 17.2788 177.648 17.6379 177.97 17.6379C178.049 17.6379 178.602 17.4015 179.63 16.9285C180.675 16.4643 181.298 16.2322 181.499 16.2322C181.934 16.2322 182.313 16.5782 182.636 17.2701C182.967 17.9795 183.132 18.8641 183.132 19.9239V22.9588C183.132 23.0989 182.927 23.2916 182.518 23.5368C182.117 23.7733 181.608 24.0317 180.989 24.312C180.379 24.5922 179.756 24.8594 179.12 25.1134C178.484 25.3586 177.927 25.5601 177.448 25.7177C176.968 25.8841 176.668 25.9673 176.546 25.9673C176.424 25.9673 176.306 25.8535 176.193 25.6257C176.054 25.3542 175.888 25.0039 175.696 24.5747C175.505 24.1455 175.309 23.7602 175.108 23.4186C174.873 22.9894 174.577 22.7748 174.22 22.7748V22.2362C174.368 22.1661 174.533 22.0873 174.716 21.9997C174.908 21.9034 175.126 21.7939 175.37 21.6713C176.494 21.0406 177.099 20.7253 177.186 20.7253C177.456 20.7253 177.792 21.2552 178.192 22.315C178.593 23.3748 178.92 23.9047 179.173 23.9047C179.347 23.9047 179.512 23.8346 179.669 23.6945C179.835 23.5456 179.917 23.3441 179.917 23.0901V19.7269C179.917 18.9211 179.695 18.5182 179.251 18.5182C179.094 18.5182 178.532 18.7328 177.565 19.1619C176.598 19.5911 176.045 19.8057 175.906 19.8057Z" fill="#394D59"/>
<path d="M33.3909 7.60065C33.2166 7.60065 33.0555 7.68824 32.9074 7.86341V18.978C32.9074 19.7312 32.9509 20.3356 33.0381 20.791C33.1252 21.2465 33.3212 21.7019 33.6261 22.1574C34.2185 23.0157 35.5645 23.4449 37.6641 23.4449V24.22C37.5857 24.22 36.928 24.4652 35.6909 24.9557C34.4538 25.4549 33.7045 25.7046 33.4432 25.7046C32.9988 25.7046 32.5545 25.5644 32.1102 25.2842C31.6659 25.0039 31.2608 24.6316 30.8949 24.1674C30.529 23.6945 30.2371 23.1733 30.0193 22.604C29.8015 22.0347 29.6926 21.4611 29.6926 20.883V7.45614C29.6926 7.40359 29.893 7.28973 30.2938 7.11456C30.7032 6.93063 31.2129 6.72042 31.8227 6.48394C32.4413 6.24746 33.0685 6.01536 33.7045 5.78764C34.3405 5.55116 34.8981 5.35847 35.3772 5.20957C35.8564 5.06068 36.157 4.98623 36.2789 4.98623C36.3573 4.98623 36.4445 5.13074 36.5403 5.41978C36.6448 5.70881 36.7494 6.06353 36.8539 6.48394C36.9585 6.89559 37.0587 7.28535 37.1545 7.65321C37.3374 8.38892 37.5291 8.93195 37.7295 9.2823C37.9386 9.63264 38.3306 9.80781 38.9056 9.80781V10.3465C38.5049 10.5129 37.8384 10.8282 36.9062 11.2924C35.9566 11.7566 35.4513 11.9887 35.3903 11.9887C35.1289 11.9887 34.7935 11.2573 34.3841 9.79467C33.9659 8.33199 33.6348 7.60065 33.3909 7.60065Z" stroke="#ECF1F3" stroke-width="8" mask="url(#path-2-outside-1_229_536)"/>
<path d="M39.7904 21.7764V12.8426C39.7904 12.7901 39.9908 12.6762 40.3915 12.5011C40.801 12.3171 41.3106 12.1069 41.9205 11.8704C42.5303 11.634 43.1489 11.4019 43.7761 11.1741C44.4121 10.9377 44.9697 10.745 45.4489 10.5961C45.928 10.4472 46.2286 10.3727 46.3505 10.3727C46.5074 10.3727 46.7121 10.4778 46.9647 10.688C47.2174 10.8895 47.47 11.1522 47.7227 11.4763C47.9841 11.8004 48.2019 12.142 48.3761 12.5011C48.5591 12.8514 48.6505 13.1711 48.6505 13.4601V23.2084C48.6505 23.2609 48.4545 23.3792 48.0625 23.5631C47.6791 23.747 47.1956 23.9616 46.6119 24.2069C46.0282 24.4433 45.4227 24.6754 44.7954 24.9032C44.1769 25.1309 43.6193 25.3236 43.1227 25.4812C42.6349 25.6301 42.3038 25.7046 42.1296 25.7046C41.8421 25.7046 41.5154 25.5294 41.1495 25.1791C40.7836 24.82 40.4656 24.3426 40.1955 23.747C39.9254 23.1515 39.7904 22.4946 39.7904 21.7764ZM44.3642 23.2347C44.7127 23.2347 45.0612 23.0901 45.4096 22.8011V14.8659C45.4096 13.5346 44.9566 12.8689 44.0506 12.8689C43.6847 12.8689 43.3362 13.0047 43.0051 13.2762V21.2377C43.0051 22.569 43.4581 23.2347 44.3642 23.2347Z" stroke="#ECF1F3" stroke-width="8" mask="url(#path-2-outside-1_229_536)"/>
<path d="M50.5938 23.8784V14.7476C50.5938 14.1608 50.4675 13.6528 50.2148 13.2236C49.9709 12.7945 49.6616 12.5799 49.287 12.5799V11.9887C49.409 11.9624 50.3804 11.415 52.2012 10.3465C52.2709 10.364 52.3449 10.3859 52.4233 10.4121C52.5017 10.4297 52.5845 10.4559 52.6716 10.491C52.8459 10.5523 53.0767 10.7275 53.3642 11.0165C53.6604 11.3055 53.8085 11.6383 53.8085 12.015C53.9392 11.9361 54.2441 11.7653 54.7233 11.5026C56.0475 10.7494 56.8621 10.3727 57.167 10.3727C57.4807 10.3727 57.8292 10.5348 58.2125 10.8588C58.5958 11.1741 58.8877 11.5595 59.088 12.015C59.1055 12.0062 59.2057 11.9537 59.3886 11.8573C59.5716 11.761 59.8373 11.6252 60.1858 11.45C61.5623 10.7318 62.3986 10.3727 62.6948 10.3727C63.0782 10.3727 63.4484 10.5523 63.8056 10.9114C64.1715 11.2705 64.4677 11.6997 64.6942 12.1989C64.9295 12.6894 65.0471 13.1448 65.0471 13.5652V21.7238C65.0471 22.7135 65.487 23.296 66.367 23.4711V24.0623L63.4397 25.7046C63.0477 25.5469 62.6818 25.2842 62.342 24.9163C62.0109 24.5484 61.8454 24.2025 61.8454 23.8784V15.9432C61.8454 14.7695 61.6929 13.99 61.388 13.6046C61.0831 13.2193 60.6911 13.0266 60.2119 13.0266L59.4278 13.1974V21.7238C59.4278 22.7135 59.8678 23.296 60.7477 23.4711V24.0623L57.8204 25.7046C57.4284 25.5469 57.0625 25.2842 56.7227 24.9163C56.383 24.5484 56.2131 24.2025 56.2131 23.8784V16.0745C56.2131 14.0075 55.7252 12.974 54.7494 12.974L53.8085 13.1448V21.7238C53.8085 22.8099 54.1745 23.4273 54.9063 23.5762V24.1674L52.2012 25.7046C51.8091 25.5469 51.4432 25.2842 51.1035 24.9163C50.7637 24.5484 50.5938 24.2025 50.5938 23.8784Z" stroke="#ECF1F3" stroke-width="8" mask="url(#path-2-outside-1_229_536)"/>
<path d="M66.9904 23.8784V14.7476C66.9904 14.1608 66.864 13.6528 66.6114 13.2236C66.3674 12.7945 66.0582 12.5799 65.6836 12.5799V11.9887C65.8055 11.9624 66.7769 11.415 68.5977 10.3465C68.6674 10.364 68.7415 10.3859 68.8199 10.4121C68.8983 10.4297 68.9811 10.4559 69.0682 10.491C69.2424 10.5523 69.4733 10.7275 69.7608 11.0165C70.057 11.3055 70.2051 11.6383 70.2051 12.015C70.3358 11.9361 70.6407 11.7653 71.1199 11.5026C72.4441 10.7494 73.2587 10.3727 73.5636 10.3727C73.8772 10.3727 74.2257 10.5348 74.609 10.8588C74.9924 11.1741 75.2842 11.5595 75.4846 12.015C75.502 12.0062 75.6022 11.9537 75.7852 11.8573C75.9681 11.761 76.2338 11.6252 76.5823 11.45C77.9588 10.7318 78.7952 10.3727 79.0914 10.3727C79.4747 10.3727 79.845 10.5523 80.2022 10.9114C80.5681 11.2705 80.8643 11.6997 81.0908 12.1989C81.326 12.6894 81.4436 13.1448 81.4436 13.5652V21.7238C81.4436 22.7135 81.8836 23.296 82.7635 23.4711V24.0623L79.8363 25.7046C79.4442 25.5469 79.0783 25.2842 78.7386 24.9163C78.4075 24.5484 78.242 24.2025 78.242 23.8784V15.9432C78.242 14.7695 78.0895 13.99 77.7846 13.6046C77.4797 13.2193 77.0876 13.0266 76.6085 13.0266L75.8244 13.1974V21.7238C75.8244 22.7135 76.2643 23.296 77.1442 23.4711V24.0623L74.217 25.7046C73.825 25.5469 73.4591 25.2842 73.1193 24.9163C72.7795 24.5484 72.6096 24.2025 72.6096 23.8784V16.0745C72.6096 14.0075 72.1218 12.974 71.146 12.974L70.2051 13.1448V21.7238C70.2051 22.8099 70.571 23.4273 71.3028 23.5762V24.1674L68.5977 25.7046C68.2057 25.5469 67.8398 25.2842 67.5 24.9163C67.1602 24.5484 66.9904 24.2025 66.9904 23.8784Z" stroke="#ECF1F3" stroke-width="8" mask="url(#path-2-outside-1_229_536)"/>
<path d="M86.6017 21.5136C86.6017 21.969 86.7411 22.3457 87.0198 22.6435C87.5687 23.2215 88.2308 23.239 89.0062 22.696V14.3272C89.0062 13.2236 88.6403 12.6018 87.9085 12.4616V11.8704L90.6136 10.3465C91.0056 10.5041 91.3715 10.7669 91.7113 11.1347C92.051 11.5026 92.2209 11.8485 92.2209 12.1726V21.2903C92.2209 21.8858 92.3473 22.3982 92.5999 22.8274C92.8526 23.2566 93.1662 23.4711 93.5408 23.4711V24.0623C93.4101 24.0711 92.4344 24.6185 90.6136 25.7046C90.2041 25.5294 89.8338 25.2666 89.5028 24.9163C89.1717 24.566 89.0062 24.2288 89.0062 23.9047L85.6608 25.7046C85.6346 25.687 85.5998 25.6695 85.5562 25.652C85.5214 25.6257 85.4778 25.5951 85.4255 25.5601C85.321 25.4987 85.138 25.363 84.8767 25.1528C84.6153 24.9426 84.3888 24.7236 84.1971 24.4959C83.657 23.9003 83.3869 23.2259 83.3869 22.4727V14.3272C83.3869 13.3287 82.9513 12.7463 82.0801 12.5799V11.9887L84.9943 10.3465C85.3863 10.5041 85.7522 10.7669 86.092 11.1347C86.4318 11.5026 86.6017 11.8485 86.6017 12.1726V21.5136Z" stroke="#ECF1F3" stroke-width="8" mask="url(#path-2-outside-1_229_536)"/>
<path d="M94.1642 23.8784V14.7476C94.1642 14.1608 94.0379 13.6528 93.7852 13.2236C93.5413 12.7945 93.232 12.5799 92.8574 12.5799V11.9887C92.9794 11.9624 93.9508 11.415 95.7716 10.3465C95.8413 10.364 95.9153 10.3859 95.9937 10.4121C96.0721 10.4297 96.1549 10.4559 96.242 10.491C96.4163 10.5523 96.6471 10.7275 96.9346 11.0165C97.2308 11.3055 97.379 11.6383 97.379 12.015C97.5096 11.9361 97.8146 11.7653 98.2937 11.5026C99.6179 10.7494 100.402 10.3727 100.646 10.3727C101.029 10.3727 101.4 10.5523 101.757 10.9114C102.123 11.2705 102.419 11.6997 102.645 12.1989C102.881 12.6894 102.998 13.1448 102.998 13.5652V21.7238C102.998 22.7135 103.438 23.296 104.318 23.4711V24.0623L101.391 25.7046C100.999 25.5469 100.633 25.2842 100.293 24.9163C99.9534 24.5484 99.7835 24.2025 99.7835 23.8784V16.0745C99.7835 15.0673 99.6702 14.3009 99.4437 13.7754C99.2259 13.2412 98.8339 12.974 98.2676 12.974L97.379 13.1448V21.7238C97.379 22.8099 97.7449 23.4273 98.4767 23.5762V24.1674L95.7716 25.7046C95.3795 25.5469 95.0136 25.2842 94.6739 24.9163C94.3341 24.5484 94.1642 24.2025 94.1642 23.8784Z" stroke="#ECF1F3" stroke-width="8" mask="url(#path-2-outside-1_229_536)"/>
<path d="M104.536 7.00945V5.36723C104.536 5.34095 104.645 5.27964 104.863 5.1833C105.09 5.08695 105.351 4.98185 105.647 4.86799C105.952 4.75413 106.227 4.65778 106.47 4.57896C106.723 4.49137 106.88 4.44758 106.941 4.44758C107.063 4.44758 107.233 4.60085 107.451 4.9074C107.668 5.21395 107.777 5.52926 107.777 5.85332V7.81086C107.777 7.83714 107.668 7.89845 107.451 7.99479C107.241 8.09113 106.993 8.19624 106.706 8.3101C106.418 8.42396 106.148 8.52468 105.895 8.61227C105.643 8.69109 105.477 8.73051 105.399 8.73051C105.19 8.73051 104.994 8.55096 104.811 8.19186C104.628 7.83276 104.536 7.43862 104.536 7.00945ZM108.156 12.1989V21.7238C108.156 22.8099 108.522 23.4273 109.254 23.5762V24.1674L106.549 25.7046C106.157 25.5469 105.791 25.2842 105.451 24.9163C105.111 24.5484 104.941 24.2025 104.941 23.8784V14.3535C104.941 13.2499 104.576 12.6281 103.844 12.4879V11.8967L106.549 10.3727C106.941 10.5304 107.307 10.7931 107.647 11.161C107.986 11.5289 108.156 11.8748 108.156 12.1989Z" stroke="#ECF1F3" stroke-width="8" mask="url(#path-2-outside-1_229_536)"/>
<path d="M112.556 7.57438H113.314V10.7669H114.673L114.412 12.0938H113.314V21.7238C113.314 22.8099 113.68 23.4273 114.412 23.5762V24.1674L111.707 25.7046C111.315 25.5469 110.949 25.2842 110.609 24.9163C110.269 24.5484 110.1 24.2025 110.1 23.8784V12.1201H109.002L109.263 10.9902C109.629 10.9902 110.052 10.8194 110.531 10.4778C111.01 10.1363 111.446 9.70271 111.838 9.17719C112.23 8.65168 112.469 8.11741 112.556 7.57438Z" stroke="#ECF1F3" stroke-width="8" mask="url(#path-2-outside-1_229_536)"/>
<path d="M124.118 12.1726V22.8537C124.118 23.5281 123.817 24.5046 123.216 25.7834C122.981 26.2739 122.706 26.795 122.393 27.3468C122.079 27.8986 121.761 28.4153 121.439 28.8971C121.116 29.3875 120.816 29.786 120.537 30.0926C120.267 30.3991 120.054 30.5524 119.897 30.5524C119.6 30.5524 119.226 30.4867 118.773 30.3554C118.329 30.2327 117.871 30.0751 117.401 29.8824C116.939 29.6897 116.529 29.5058 116.172 29.3306L115.401 28.9365V28.1219H116.303C116.773 28.1219 117.292 27.9424 117.858 27.5833C118.424 27.2242 118.978 26.7118 119.518 26.0462C120.058 25.3893 120.52 24.6185 120.903 23.7339C118.899 24.6886 117.74 25.1659 117.427 25.1659C117.061 25.1659 116.712 24.9995 116.381 24.6667C116.059 24.3339 115.793 23.9047 115.584 23.3792C115.384 22.8537 115.284 22.3019 115.284 21.7238V14.3272C115.284 13.3287 114.848 12.7463 113.977 12.5799V11.9887L116.891 10.3465C117.283 10.5041 117.649 10.7669 117.989 11.1347C118.329 11.5026 118.498 11.8485 118.498 12.1726V19.4641C118.498 20.7166 118.694 21.553 119.086 21.9734C119.479 22.3938 120.084 22.604 120.903 22.604V14.3272C120.903 13.2236 120.537 12.6018 119.805 12.4616V11.8704L122.51 10.3465C122.902 10.5041 123.268 10.7669 123.608 11.1347C123.948 11.5026 124.118 11.8485 124.118 12.1726Z" stroke="#ECF1F3" stroke-width="8" mask="url(#path-2-outside-1_229_536)"/>
<path d="M133.924 17.1256C133.471 17.1256 133.083 16.784 132.761 16.1008C132.447 15.4177 132.291 14.5812 132.291 13.5915V7.99479C132.291 7.86341 132.474 7.6751 132.839 7.42986C133.214 7.18462 133.68 6.92625 134.238 6.65473C134.804 6.37446 135.379 6.10732 135.963 5.85332C136.546 5.59933 137.056 5.3935 137.492 5.23585C137.936 5.06944 138.215 4.98623 138.328 4.98623C138.546 4.98623 138.851 5.34533 139.243 6.06353C139.286 6.15112 139.339 6.25622 139.4 6.37884C139.469 6.50146 139.548 6.63721 139.635 6.78611C139.722 6.93501 139.796 7.07514 139.857 7.20652C139.927 7.3379 139.988 7.45176 140.04 7.5481C140.275 7.97727 140.571 8.19186 140.929 8.19186V8.73051C140.789 8.79182 140.624 8.87064 140.432 8.96699C140.24 9.06333 140.023 9.17281 139.779 9.29543C138.646 9.91729 138.041 10.2282 137.962 10.2282C137.692 10.2282 137.357 9.69833 136.956 8.63854C136.555 7.58752 136.228 7.062 135.976 7.062C135.653 7.062 135.492 7.32914 135.492 7.86341V13.8674C135.492 14.5856 135.653 14.9447 135.976 14.9447C136.054 14.9447 136.607 14.7082 137.635 14.2353C138.681 13.771 139.308 13.5389 139.517 13.5389C139.953 13.5389 140.332 13.8849 140.654 14.5768C140.976 15.26 141.138 16.1446 141.138 17.2307V22.9588C141.138 23.0989 140.933 23.2916 140.523 23.5368C140.123 23.7733 139.613 24.0317 138.994 24.312C138.385 24.5922 137.762 24.8594 137.126 25.1134C136.49 25.3586 135.932 25.5601 135.453 25.7177C134.983 25.8841 134.686 25.9673 134.564 25.9673C134.373 25.9673 134.185 25.8447 134.002 25.5995C133.82 25.3455 133.641 25.0345 133.467 24.6667C133.301 24.2901 133.136 23.9178 132.97 23.55C132.805 23.1733 132.639 22.8624 132.474 22.6172C132.308 22.3632 132.138 22.2362 131.964 22.2362V21.6975C132.112 21.6362 132.277 21.5574 132.46 21.4611C132.652 21.3647 132.861 21.2552 133.088 21.1326C134.229 20.502 134.843 20.1867 134.93 20.1867C135.2 20.1867 135.584 20.8042 136.08 22.0391C136.559 23.2828 136.925 23.9047 137.178 23.9047C137.361 23.9047 137.531 23.8346 137.688 23.6945C137.853 23.5456 137.936 23.3441 137.936 23.0901V17.0467C137.936 16.2322 137.714 15.8249 137.27 15.8249C137.113 15.8249 136.551 16.0395 135.584 16.4687C134.591 16.9066 134.037 17.1256 133.924 17.1256Z" stroke="#ECF1F3" stroke-width="8" mask="url(#path-2-outside-1_229_536)"/>
<path d="M142.937 28.6606V14.5111C142.937 14.0995 142.824 13.6966 142.597 13.3025C142.38 12.9083 142.066 12.685 141.657 12.6324V12.0412C141.778 12.0237 142.75 11.4763 144.571 10.399C144.98 10.5742 145.35 10.8369 145.681 11.1873C146.013 11.5376 146.178 11.8661 146.178 12.1726C148.086 10.9902 149.201 10.399 149.523 10.399C149.645 10.399 149.881 10.5348 150.229 10.8063C150.578 11.0778 150.926 11.4807 151.275 12.015C151.623 12.5492 151.797 13.0923 151.797 13.6441V23.2347C151.797 23.2872 151.645 23.3879 151.34 23.5368C151.035 23.6857 150.643 23.8609 150.164 24.0623C149.685 24.255 149.184 24.4521 148.661 24.6535C148.138 24.8462 147.65 25.0214 147.197 25.1791C146.744 25.3367 146.396 25.4506 146.152 25.5206V26.506C146.152 27.6008 146.518 28.2226 147.25 28.3715V28.9627L144.545 30.4999C144.153 30.3335 143.787 30.0663 143.447 29.6985C143.107 29.3306 142.937 28.9846 142.937 28.6606ZM147.223 12.8689C146.884 12.8689 146.535 13.0134 146.178 13.3025V23.9835C146.492 23.9835 146.836 23.9134 147.21 23.7733C147.585 23.6244 147.907 23.4405 148.177 23.2215C148.448 23.0026 148.583 22.7792 148.583 22.5515V14.8659C148.583 13.5346 148.13 12.8689 147.223 12.8689Z" stroke="#ECF1F3" stroke-width="8" mask="url(#path-2-outside-1_229_536)"/>
<path d="M160.275 10.3727C160.37 10.3727 160.593 10.5085 160.941 10.78C161.298 11.0515 161.655 11.4369 162.013 11.9361C162.37 12.4354 162.548 12.9171 162.548 13.3813V17.9007C162.548 18.2248 162.078 18.6189 161.137 19.0831C160.658 19.3196 160.113 19.5604 159.504 19.8057C158.894 20.0509 158.345 20.2568 157.857 20.4232C157.369 20.5896 157.069 20.6728 156.955 20.6728C156.955 22.0479 157.552 22.9018 158.746 23.2347C159.312 23.3748 160.018 23.4449 160.863 23.4449V24.22C157.927 25.2097 156.363 25.7046 156.171 25.7046C155.823 25.7046 155.457 25.5294 155.074 25.1791C154.69 24.82 154.368 24.3514 154.106 23.7733C153.845 23.1952 153.714 22.5646 153.714 21.8815V12.8426C153.714 12.7901 153.915 12.6762 154.316 12.5011C154.725 12.3171 155.235 12.1069 155.845 11.8704C156.454 11.634 157.073 11.4019 157.7 11.1741C158.336 10.9377 158.894 10.745 159.373 10.5961C159.852 10.4472 160.153 10.3727 160.275 10.3727ZM159.334 14.6425C159.334 14.152 159.22 13.7273 158.994 13.3682C158.759 13.0178 158.458 12.8426 158.092 12.8426C157.735 12.8426 157.347 12.9784 156.929 13.2499V19.4641C158.532 19.0174 159.334 18.0496 159.334 16.5606V14.6425Z" stroke="#ECF1F3" stroke-width="8" mask="url(#path-2-outside-1_229_536)"/>
<path d="M167.576 6.83866V21.7238C167.576 22.8099 167.942 23.4273 168.674 23.5762V24.1674L165.968 25.7046C165.576 25.5469 165.21 25.2842 164.871 24.9163C164.531 24.5484 164.361 24.2025 164.361 23.8784V8.99326C164.361 7.89845 163.995 7.28097 163.263 7.14083V6.54963L165.968 5.0125C166.36 5.17892 166.726 5.44605 167.066 5.81391C167.406 6.17301 167.576 6.5146 167.576 6.83866Z" stroke="#ECF1F3" stroke-width="8" mask="url(#path-2-outside-1_229_536)"/>
<path d="M172.734 6.83866V21.7238C172.734 22.8099 173.1 23.4273 173.832 23.5762V24.1674L171.126 25.7046C170.734 25.5469 170.369 25.2842 170.029 24.9163C169.689 24.5484 169.519 24.2025 169.519 23.8784V8.99326C169.519 7.89845 169.153 7.28097 168.421 7.14083V6.54963L171.126 5.0125C171.518 5.17892 171.884 5.44605 172.224 5.81391C172.564 6.17301 172.734 6.5146 172.734 6.83866Z" stroke="#ECF1F3" stroke-width="8" mask="url(#path-2-outside-1_229_536)"/>
<path d="M175.906 19.8057C175.461 19.8057 175.078 19.4685 174.756 18.7941C174.433 18.1109 174.272 17.2745 174.272 16.2848V13.3813C174.272 13.2412 174.455 13.0528 174.821 12.8164C175.195 12.5711 175.662 12.3084 176.219 12.0281C176.785 11.7478 177.36 11.4851 177.944 11.2398C178.528 10.9858 179.042 10.78 179.486 10.6224C179.93 10.4559 180.209 10.3727 180.323 10.3727C180.479 10.3727 180.619 10.4691 180.741 10.6618C180.871 10.8457 180.972 10.9946 181.041 11.1085C181.137 11.2661 181.25 11.4676 181.381 11.7128C181.512 11.958 181.642 12.1814 181.773 12.3828C181.991 12.812 182.283 13.0266 182.649 13.0266V13.5652C182.509 13.6265 182.344 13.7054 182.152 13.8017C181.96 13.898 181.751 14.0075 181.525 14.1301C180.392 14.7608 179.778 15.0761 179.682 15.0761C179.412 15.0761 179.12 14.6338 178.807 13.7492C178.493 12.8733 178.214 12.4354 177.97 12.4354C177.648 12.4354 177.487 12.7069 177.487 13.2499V16.5606C177.487 17.2788 177.648 17.6379 177.97 17.6379C178.049 17.6379 178.602 17.4015 179.63 16.9285C180.675 16.4643 181.298 16.2322 181.499 16.2322C181.934 16.2322 182.313 16.5782 182.636 17.2701C182.967 17.9795 183.132 18.8641 183.132 19.9239V22.9588C183.132 23.0989 182.927 23.2916 182.518 23.5368C182.117 23.7733 181.608 24.0317 180.989 24.312C180.379 24.5922 179.756 24.8594 179.12 25.1134C178.484 25.3586 177.927 25.5601 177.448 25.7177C176.968 25.8841 176.668 25.9673 176.546 25.9673C176.424 25.9673 176.306 25.8535 176.193 25.6257C176.054 25.3542 175.888 25.0039 175.696 24.5747C175.505 24.1455 175.309 23.7602 175.108 23.4186C174.873 22.9894 174.577 22.7748 174.22 22.7748V22.2362C174.368 22.1661 174.533 22.0873 174.716 21.9997C174.908 21.9034 175.126 21.7939 175.37 21.6713C176.494 21.0406 177.099 20.7253 177.186 20.7253C177.456 20.7253 177.792 21.2552 178.192 22.315C178.593 23.3748 178.92 23.9047 179.173 23.9047C179.347 23.9047 179.512 23.8346 179.669 23.6945C179.835 23.5456 179.917 23.3441 179.917 23.0901V19.7269C179.917 18.9211 179.695 18.5182 179.251 18.5182C179.094 18.5182 178.532 18.7328 177.565 19.1619C176.598 19.5911 176.045 19.8057 175.906 19.8057Z" stroke="#ECF1F3" stroke-width="8" mask="url(#path-2-outside-1_229_536)"/>
</svg>
